<svg width="41" height="40" viewBox="0 0 41 40" fill="none" xmlns="http://www.w3.org/2000/svg">
<path d="M30.644 37.5024C30.4952 37.5812 30.5077 37.6062 30.6502 37.5337C30.6965 37.5149 30.7352 37.4887 30.769 37.4574C30.769 37.4312 30.769 37.4312 30.644 37.5024ZM30.944 37.3399C30.8727 37.3987 30.8727 37.3987 30.9577 37.3599C31.0027 37.3337 31.0427 37.3087 31.0427 37.3012C31.0427 37.2674 31.0227 37.2749 30.944 37.3399ZM31.139 37.2224C31.0677 37.2812 31.0677 37.2812 31.1527 37.2424C31.199 37.2162 31.2377 37.1887 31.2377 37.1824C31.2377 37.1512 31.2177 37.1574 31.139 37.2224ZM31.3365 37.1062C31.2652 37.1649 31.2652 37.1649 31.3477 37.1249C31.394 37.0999 31.4327 37.0737 31.4327 37.0662C31.4327 37.0349 31.4127 37.0412 31.3365 37.1062ZM31.6028 36.9299C31.4665 37.0212 31.419 37.0799 31.544 37.0149C31.6278 36.9637 31.7703 36.8512 31.7453 36.8512C31.6915 36.8712 31.6465 36.9049 31.6015 36.9299H31.6028ZM19.6488 0.00918772C19.5575 0.0154378 19.2838 0.0404384 19.0437 0.0604388C13.3586 0.575449 8.03977 3.63551 4.66846 8.34936C2.80467 10.9332 1.59464 13.9345 1.13838 17.0858C0.977131 18.1858 0.95713 18.5108 0.95713 20.0021C0.95713 21.4921 0.977131 21.8121 1.13838 22.9122C2.22716 30.4261 7.57226 36.7337 14.8174 39.0712C16.1212 39.4875 17.4875 39.775 19.0437 39.9512C19.6488 40.0163 22.2651 40.0163 22.8701 39.9512C25.5601 39.6512 27.8314 38.9875 30.079 37.8412C30.424 37.6662 30.489 37.62 30.4427 37.5812C29.3427 36.1299 28.2627 34.6774 27.1814 33.2124L23.9851 28.896L19.9813 22.9647C18.6462 20.9796 17.3062 18.9996 15.9449 17.0345C15.9312 17.0345 15.9137 19.6708 15.9062 22.8859C15.8924 28.5173 15.8924 28.746 15.8212 28.876C15.7499 29.0323 15.6324 29.1623 15.4762 29.2348C15.3524 29.2935 15.2412 29.306 14.6499 29.306H13.9736L13.7974 29.196C13.6874 29.1248 13.5961 29.026 13.5374 28.9098L13.4524 28.7335L13.4586 20.8946L13.4724 13.0557L13.5961 12.8995C13.6749 12.8032 13.7724 12.7244 13.8824 12.6657C14.0461 12.5869 14.1111 12.5744 14.7874 12.5744C15.5812 12.5744 15.7124 12.6057 15.9212 12.8344C17.5412 15.2495 19.1562 17.6708 20.745 20.0996C23.3438 24.0397 26.8914 29.416 28.6352 32.0536L31.8065 36.8524L31.9628 36.7487C33.4865 35.7324 34.8728 34.5224 36.0691 33.1424C38.5891 30.2573 40.2242 26.7085 40.7779 22.9209C40.9392 21.8209 40.9592 21.4946 40.9592 20.0046C40.9592 18.5133 40.9392 18.1946 40.7779 17.0945C39.6892 9.58063 34.3441 3.273 27.0989 0.934207C25.7439 0.505448 24.3501 0.212942 22.9388 0.0629388C22.5601 0.024188 19.975 -0.0220629 19.65 0.0116878L19.6488 0.00918772ZM27.8327 12.1057C28.0214 12.1957 28.1639 12.3657 28.2289 12.5607C28.2627 12.6657 28.2689 14.8395 28.2627 19.7358L28.2489 26.766L27.0127 24.8659L25.7689 22.9647V17.8608C25.7689 14.552 25.7826 12.6969 25.8001 12.6057C25.8589 12.3969 26.0014 12.2219 26.1914 12.1119C26.3464 12.0332 26.4064 12.0269 27.0252 12.0269C27.6039 12.0269 27.7027 12.0332 27.8327 12.1057Z" fill="#EFEFF2"/>
</svg>
