<svg width="42" height="40" viewBox="0 0 42 40" fill="none" xmlns="http://www.w3.org/2000/svg">
<path d="M20.8341 0C10.6265 7.27404e-07 11.2639 4.42665 11.2639 4.42665L11.2753 9.01261H21.0162V10.3895H7.40626C7.40626 10.3895 0.87439 9.64876 0.87439 19.9484C0.874389 30.248 6.57555 29.8827 6.57555 29.8827H9.97804V25.1033C9.97804 25.1033 9.79463 19.4021 15.5882 19.4021H25.2494C25.2494 19.4021 30.6775 19.4899 30.6775 14.1562V5.33701C30.6775 5.33701 31.5016 0 20.8341 0ZM15.463 3.08386C16.4321 3.08386 17.2154 3.86716 17.2154 4.83631C17.2154 5.80546 16.4321 6.58876 15.463 6.58876C14.4938 6.58876 13.7105 5.80546 13.7105 4.83631C13.7105 3.86716 14.4938 3.08386 15.463 3.08386Z" fill="url(#paint0_linear_10_200)"/>
<path d="M21.124 40C31.3317 40 30.6942 35.5734 30.6942 35.5734L30.6829 30.9874H20.942V29.6105H34.5519C34.5519 29.6105 41.0838 30.3513 41.0838 20.0517C41.0838 9.75208 35.3826 10.1173 35.3826 10.1173H31.9801V14.8967C31.9801 14.8967 32.1635 20.5979 26.37 20.5979H16.7088C16.7088 20.5979 11.2807 20.5102 11.2807 25.8439V34.663C11.2807 34.663 10.4566 40 21.124 40ZM26.4952 36.9162C25.526 36.9162 24.7427 36.1329 24.7427 35.1637C24.7427 34.1946 25.526 33.4113 26.4952 33.4113C27.4643 33.4113 28.2476 34.1946 28.2476 35.1637C28.2476 36.1329 27.4643 36.9162 26.4952 36.9162Z" fill="url(#paint1_linear_10_200)"/>
<defs>
<linearGradient id="paint0_linear_10_200" x1="990.109" y1="917.462" x2="6091.2" y2="5947.94" gradientUnits="userSpaceOnUse">
<stop stop-color="#387EB8"/>
<stop offset="1" stop-color="#366994"/>
</linearGradient>
<linearGradient id="paint1_linear_10_200" x1="1471.34" y1="1578.35" x2="6949.37" y2="6736.67" gradientUnits="userSpaceOnUse">
<stop stop-color="#FFE052"/>
<stop offset="1" stop-color="#FFC331"/>
</linearGradient>
</defs>
</svg>
