<svg width="55" height="32" viewBox="0 0 55 32" fill="none" xmlns="http://www.w3.org/2000/svg">
<path d="M27.4582 0C20.3471 0 15.9026 3.55556 14.1248 10.6667C16.7915 7.11111 19.9026 5.77778 23.4582 6.66667C25.4868 7.17383 26.9368 8.64553 28.5417 10.2747C31.1562 12.9285 34.1822 16 40.7915 16C47.9026 16 52.347 12.4444 54.1248 5.33333C51.4582 8.88889 48.347 10.2222 44.7915 9.33333C42.7629 8.82617 41.3129 7.35447 39.7079 5.72533C37.0934 3.07151 34.0674 0 27.4582 0ZM14.1248 16C7.01372 16 2.56927 19.5556 0.791496 26.6667C3.45816 23.1111 6.56927 21.7778 10.1248 22.6667C12.1535 23.1738 13.6034 24.6455 15.2084 26.2747C17.8229 28.9285 20.8489 32 27.4582 32C34.5693 32 39.0137 28.4444 40.7915 21.3333C38.1248 24.8889 35.0137 26.2222 31.4582 25.3333C29.4295 24.8262 27.9795 23.3545 26.3746 21.7253C23.7601 19.0715 20.7341 16 14.1248 16Z" fill="url(#paint0_linear_10_168)"/>
<defs>
<linearGradient id="paint0_linear_10_168" x1="-378.468" y1="1576.96" x2="12689.7" y2="6109.62" gradientUnits="userSpaceOnUse">
<stop stop-color="#2298BD"/>
<stop offset="1" stop-color="#0ED7B5"/>
</linearGradient>
</defs>
</svg>
