<svg width="39" height="38" viewBox="0 0 39 38" fill="none" xmlns="http://www.w3.org/2000/svg">
<path d="M0.87439 19V38H19.8744H38.8744V19V0H19.8744H0.87439V19Z" fill="#007ACC"/>
<path d="M9.27768 19.126L9.26561 20.6822H11.7386H14.2116V27.7092V34.7362H15.9609H17.7101V27.7092V20.6822H20.1831H22.6561V19.1562C22.6561 18.3118 22.638 17.606 22.6139 17.588C22.5958 17.5638 19.5859 17.5518 15.9367 17.5578L9.29577 17.5759L9.27768 19.126Z" fill="white"/>
<path d="M31.5367 17.5318C32.5017 17.7731 33.2376 18.2013 33.9132 18.901C34.263 19.275 34.7817 19.9566 34.824 20.1194C34.836 20.1677 33.1833 21.2775 32.1821 21.8988C32.1459 21.9229 32.0011 21.7661 31.8383 21.5248C31.3497 20.8131 30.837 20.5055 30.0529 20.4512C28.9008 20.3728 28.1589 20.9759 28.1649 21.9832C28.1649 22.2788 28.2071 22.4537 28.3278 22.695C28.5811 23.2197 29.0516 23.5334 30.5294 24.1728C33.2497 25.3429 34.4138 26.115 35.1376 27.2128C35.9459 28.4372 36.1268 30.3915 35.5779 31.8451C34.9748 33.4255 33.4789 34.4991 31.3738 34.855C30.7224 34.9696 29.1783 34.9515 28.4786 34.8248C26.9525 34.5534 25.5049 33.7994 24.6122 32.8102C24.2624 32.4242 23.5808 31.4169 23.623 31.3445C23.6411 31.3204 23.7979 31.2239 23.9729 31.1213C24.1417 31.0248 24.7811 30.6569 25.3843 30.307L26.476 29.6737L26.7052 30.0115C27.0249 30.5001 27.7246 31.1696 28.1468 31.3928C29.3592 32.0321 31.024 31.9416 31.8443 31.2058C32.1941 30.8861 32.3389 30.5543 32.3389 30.0658C32.3389 29.6255 32.2846 29.4324 32.0554 29.1007C31.7598 28.6785 31.1567 28.3226 29.4436 27.5807C27.4833 26.7362 26.6389 26.2115 25.8668 25.3791C25.4205 24.8966 24.9983 24.1245 24.8233 23.4791C24.6786 22.9423 24.6424 21.5972 24.757 21.0543C25.1611 19.1604 26.5906 17.8394 28.6535 17.4474C29.323 17.3207 30.8792 17.3689 31.5367 17.5318Z" fill="white"/>
</svg>
