<svg width="1029" height="1029" viewBox="0 0 1029 1029" fill="none" xmlns="http://www.w3.org/2000/svg">
<path opacity="0.0344828" d="M180.366 502.489C158.237 493.581 161.435 461.432 184.619 456.881L185.17 456.779L361.844 425.855C375.397 423.483 384.69 410.947 383.105 397.356L383.021 396.708L357.836 219.126C354.486 195.508 383.926 182.203 399.459 200.005L399.824 200.431L514.94 337.974C523.771 348.524 539.274 350.304 550.252 342.137L550.771 341.74L691.97 231.137C710.75 216.428 736.991 235.272 729.341 257.624L729.154 258.153L667.597 426.618C662.875 439.541 669.086 453.858 681.648 459.281L682.251 459.532L848.635 526.512C870.764 535.421 867.565 567.568 844.382 572.119L843.831 572.222L667.157 603.146C653.605 605.518 644.312 618.053 645.897 631.644L645.98 632.292L671.165 809.875C674.515 833.494 645.074 846.798 629.541 828.996L629.178 828.569L514.06 691.028C505.229 680.477 489.726 678.697 478.749 686.865L478.229 687.262L337.031 797.863C318.252 812.573 292.01 793.73 299.66 771.377L299.848 770.848L361.404 602.382C366.125 589.459 359.915 575.143 347.353 569.721L346.75 569.47L180.366 502.489Z" stroke="#959AD3" stroke-width="2"/>
<path opacity="0.0689655" d="M186.525 485.822C164.893 475.767 169.769 443.831 193.159 440.5L193.715 440.426L368.217 419.222C381.874 417.563 391.811 405.53 390.94 391.875L390.889 391.223L375.349 216.127C373.24 192.365 403.336 180.62 417.916 199.21L418.258 199.655L523.872 340.176C532.138 351.174 547.526 353.764 558.916 346.182L559.455 345.812L703.325 244.805C722.848 231.098 748.068 251.29 739.258 273.212L739.043 273.73L670.155 435.455C664.763 448.112 670.216 462.734 682.477 468.807L683.066 469.09L842.475 543.179C864.108 553.233 859.231 585.171 835.841 588.502L835.285 588.575L660.783 609.778C647.125 611.438 637.189 623.471 638.061 637.126L638.11 637.777L653.651 812.875C655.76 836.637 625.663 848.381 611.083 829.79L610.742 829.346L505.128 688.824C496.861 677.826 481.474 675.238 470.084 682.82L469.544 683.189L325.676 784.196C306.152 797.903 280.932 777.711 289.742 755.789L289.957 755.272L358.845 593.546C364.236 580.888 358.784 566.267 346.523 560.194L345.934 559.911L186.525 485.822Z" stroke="#959AD3" stroke-width="2"/>
<path opacity="0.103448" d="M193.499 469.763C172.423 458.59 178.964 426.953 202.496 424.85L203.055 424.807L374.862 413.01C388.588 412.067 399.139 400.571 398.984 386.889L398.969 386.236L392.742 214.136C391.88 190.297 422.55 180.144 436.137 199.472L436.454 199.934L532.575 342.824C540.254 354.24 555.486 357.631 567.257 350.655L567.815 350.314L713.744 258.873C733.958 246.207 758.086 267.691 748.141 289.122L747.9 289.627L672.212 444.315C666.165 456.674 670.846 471.56 682.773 478.267L683.346 478.58L835.5 559.237C856.577 570.41 850.036 602.047 826.504 604.15L825.944 604.194L654.138 615.99C640.412 616.933 629.86 628.43 630.016 642.111L630.03 642.765L636.257 814.863C637.12 838.702 606.449 848.857 592.863 829.528L592.545 829.067L496.425 686.175C488.746 674.76 473.514 671.369 461.742 678.345L461.185 678.685L315.256 770.127C295.042 782.793 270.914 761.309 280.858 739.879L281.1 739.372L356.787 584.685C362.834 572.327 358.154 557.44 346.228 550.734L345.654 550.42L193.499 469.763Z" stroke="#959AD3" stroke-width="2"/>
<path opacity="0.137931" d="M201.242 454.354C180.779 442.093 188.967 410.842 212.577 409.974L213.138 409.959L381.752 407.227C395.508 407.005 406.648 396.077 407.209 382.406L407.227 381.753L409.959 213.137C410.346 189.285 441.504 180.751 454.061 200.764L454.355 201.242L541.027 345.901C548.099 357.703 563.133 361.886 575.253 355.536L575.827 355.226L723.218 273.283C744.067 261.692 767.038 284.41 755.985 305.29L755.717 305.783L673.775 453.174C667.09 465.199 670.984 480.31 682.544 487.631L683.1 487.973L827.759 574.646C848.222 586.907 840.033 618.159 816.423 619.027L815.863 619.041L647.249 621.773C633.492 621.996 622.352 632.924 621.792 646.595L621.773 647.248L619.042 815.863C618.655 839.715 587.497 848.249 574.94 828.237L574.646 827.759L487.973 683.1C480.902 671.298 465.868 667.114 453.748 673.464L453.174 673.776L305.783 755.717C284.934 767.308 261.962 744.591 273.016 723.71L273.284 723.218L355.225 575.827C361.91 563.802 358.016 548.691 346.457 541.37L345.901 541.027L201.242 454.354Z" stroke="#959AD3" stroke-width="2"/>
<path opacity="0.172414" d="M209.703 439.63C189.91 426.315 199.723 395.533 223.345 395.902L223.906 395.917L388.861 401.885C402.61 402.382 414.306 392.052 415.581 378.429L415.635 377.778L426.942 213.103C428.576 189.304 460.139 182.412 471.631 203.054L471.899 203.547L549.208 349.386C555.651 361.542 570.446 366.506 582.882 360.799L583.473 360.519L731.739 287.974C753.166 277.49 774.917 301.378 762.786 321.652L762.493 322.13L674.847 462.001C667.542 473.659 670.64 488.954 681.801 496.87L682.338 497.242L819.297 589.371C839.09 602.686 829.278 633.466 805.655 633.098L805.094 633.084L640.139 627.115C626.39 626.618 614.694 636.949 613.418 650.572L613.365 651.223L602.058 815.898C600.424 839.697 568.861 846.589 557.369 825.947L557.101 825.454L479.792 679.615C473.348 667.459 458.554 662.495 446.118 668.202L445.527 668.481L297.261 741.027C275.834 751.511 254.083 727.622 266.214 707.349L266.507 706.871L354.153 567C361.458 555.342 358.36 540.047 347.2 532.131L346.663 531.759L209.703 439.63Z" stroke="#959AD3" stroke-width="2"/>
<path opacity="0.206897" d="M218.834 425.621C199.765 411.288 211.175 381.064 234.746 382.668L235.306 382.712L396.161 396.989C409.865 398.205 422.087 388.501 424.073 374.963L424.16 374.316L443.639 214.006C446.516 190.325 478.397 185.095 488.793 206.311L489.035 206.817L557.099 353.26C562.897 365.737 577.412 371.468 590.129 366.42L590.733 366.171L739.305 302.886C761.252 293.538 781.722 318.532 768.547 338.143L768.229 338.605L675.437 470.772C667.531 482.032 669.825 497.468 680.556 505.957L681.074 506.357L810.166 603.38C829.236 617.712 817.825 647.938 794.253 646.333L793.695 646.289L632.839 632.013C619.134 630.796 606.913 640.5 604.927 654.038L604.84 654.685L585.361 814.994C582.483 838.675 550.603 843.906 540.207 822.691L539.965 822.184L471.9 675.741C466.102 663.264 451.588 657.533 438.871 662.581L438.266 662.83L289.695 726.114C267.749 735.463 247.278 710.469 260.453 690.859L260.77 690.396L353.562 558.228C361.468 546.968 359.175 531.533 348.444 523.043L347.926 522.645L218.834 425.621Z" stroke="#959AD3" stroke-width="2"/>
<path opacity="0.241379" d="M228.583 412.357C210.29 397.046 223.266 367.46 246.721 370.296L247.277 370.369L403.627 392.543C417.249 394.474 429.96 385.424 432.653 372.009L432.774 371.367L460 215.817C464.113 192.319 496.223 188.764 505.494 210.495L505.709 211.013L564.681 357.502C569.819 370.265 584.014 376.749 596.978 372.373L597.594 372.156L745.917 317.96C768.323 309.773 787.457 335.804 773.273 354.699L772.932 355.143L675.554 479.46C667.07 490.291 668.553 505.825 678.825 514.865L679.321 515.29L800.417 616.643C818.71 631.954 805.734 661.54 782.279 658.704L781.723 658.63L625.372 636.457C611.751 634.525 599.04 643.576 596.347 656.991L596.226 657.633L569 813.183C564.887 836.681 532.777 840.236 523.505 818.505L523.29 817.987L464.318 671.497C459.181 658.734 444.986 652.251 432.022 656.627L431.406 656.844L283.083 711.04C260.677 719.227 241.543 693.196 255.726 674.301L256.068 673.857L353.446 549.54C361.93 538.709 360.447 523.175 350.175 514.135L349.68 513.711L228.583 412.357Z" stroke="#959AD3" stroke-width="2"/>
<path opacity="0.275862" d="M238.897 399.866C221.43 383.619 235.937 354.752 259.211 358.812L259.763 358.914L411.23 388.554C424.732 391.196 437.901 382.823 441.292 369.567L441.445 368.932L475.975 218.504C481.312 195.254 513.565 193.384 521.686 215.571L521.873 216.099L571.939 362.093C576.402 375.107 590.237 382.324 603.412 378.633L604.039 378.449L751.578 333.139C774.382 326.136 792.128 353.133 776.975 371.26L776.611 371.686L675.208 488.04C666.169 498.412 666.837 514.003 676.622 523.568L677.094 524.019L790.103 629.136C807.57 645.384 793.063 674.25 769.788 670.19L769.238 670.088L617.77 640.449C604.268 637.807 591.1 646.18 587.709 659.436L587.554 660.07L553.025 810.498C547.688 833.748 515.435 835.618 507.314 813.432L507.126 812.904L457.062 666.909C452.599 653.895 438.763 646.678 425.588 650.369L424.961 650.553L277.421 695.863C254.618 702.866 236.872 675.869 252.025 657.743L252.389 657.316L353.791 540.962C362.831 530.59 362.163 514.999 352.379 505.435L351.906 504.984L238.897 399.866Z" stroke="#959AD3" stroke-width="2"/>
<path opacity="0.310345" d="M249.722 388.167C233.129 371.028 249.127 342.96 272.157 348.232L272.703 348.362L418.943 385.02C432.289 388.365 445.878 380.692 449.957 367.632L450.145 367.006L491.52 222.029C498.066 199.09 530.372 198.91 537.321 221.491L537.481 222.029L578.855 367.005C582.631 380.235 596.07 388.167 609.42 385.171L610.057 385.02L756.297 348.362C779.436 342.562 795.745 370.451 779.663 387.759L779.278 388.166L674.411 496.486C664.841 506.371 664.692 521.975 673.963 532.039L674.412 532.514L779.278 640.834C795.871 657.972 779.873 686.04 756.843 680.768L756.297 680.638L610.057 643.98C596.711 640.635 583.122 648.308 579.042 661.368L578.855 661.994L537.48 806.971C530.934 829.911 498.628 830.09 491.679 807.509L491.519 806.971L450.145 661.995C446.369 648.765 432.93 640.833 419.58 643.829L418.943 643.98L272.703 680.638C249.564 686.438 233.255 658.549 249.336 641.241L249.722 640.834L354.589 532.514C364.159 522.629 364.308 507.025 355.037 496.961L354.588 496.486L249.722 388.167Z" stroke="#959AD3" stroke-width="2"/>
<path opacity="0.344828" d="M261.004 377.279C245.331 359.295 262.776 332.103 285.498 338.574L286.036 338.733L426.742 381.944C439.894 385.983 453.865 379.032 458.623 366.204L458.843 365.588L506.589 226.356C514.327 203.791 546.598 205.303 552.356 228.216L552.487 228.761L585.418 372.221C588.496 385.631 601.501 394.255 614.99 391.961L615.633 391.843L760.084 363.577C783.495 358.995 798.322 387.699 781.357 404.143L780.95 404.528L673.175 504.777C663.102 514.148 662.136 529.723 670.867 540.258L671.291 540.756L767.996 651.721C783.668 669.706 766.223 696.897 743.501 690.427L742.964 690.268L602.258 647.056C589.106 643.017 575.135 649.968 570.377 662.797L570.157 663.412L522.411 802.645C514.672 825.209 482.401 823.698 476.644 800.784L476.512 800.239L443.582 656.778C440.504 643.369 427.498 634.745 414.009 637.039L413.367 637.157L268.915 665.424C245.504 670.005 230.678 641.301 247.642 624.858L248.049 624.472L355.824 524.223C365.898 514.853 366.864 499.278 358.133 488.743L357.71 488.244L261.004 377.279Z" stroke="#959AD3" stroke-width="2"/>
<path opacity="0.37931" d="M272.688 367.22C257.978 348.44 276.822 322.198 299.175 329.849L299.704 330.036L434.597 379.325C447.52 384.047 461.836 377.837 467.259 365.274L467.51 364.671L521.143 231.445C530.051 209.316 562.2 212.514 566.751 235.698L566.852 236.249L591.614 377.716C593.986 391.268 606.522 400.561 620.113 398.976L620.76 398.892L762.955 378.726C786.573 375.377 799.878 404.817 782.076 420.349L781.649 420.714L671.516 512.89C660.965 521.721 659.186 537.225 667.354 548.202L667.751 548.721L756.312 661.782C771.022 680.561 752.178 706.803 729.825 699.152L729.296 698.965L594.403 649.676C581.48 644.954 567.164 651.164 561.741 663.727L561.489 664.329L507.857 797.556C498.949 819.685 466.8 816.487 462.249 793.304L462.148 792.752L437.386 651.286C435.014 637.734 422.478 628.44 408.887 630.025L408.239 630.11L266.044 650.276C242.426 653.625 229.122 624.185 246.924 608.652L247.351 608.287L357.483 516.111C368.034 507.28 369.814 491.777 361.646 480.8L361.249 480.28L272.688 367.22Z" stroke="#959AD3" stroke-width="2"/>
<path opacity="0.413793" d="M284.719 357.999C271.012 338.475 291.204 313.255 313.125 322.065L313.644 322.28L442.485 377.161C455.142 382.552 469.764 377.1 475.837 364.839L476.12 364.249L535.145 237.254C545.199 215.621 577.136 220.497 580.467 243.887L580.54 244.444L597.433 383.464C599.092 397.121 611.125 407.057 624.779 406.186L625.431 406.137L764.925 393.756C788.687 391.647 800.432 421.743 781.842 436.323L781.397 436.665L669.447 520.803C658.449 529.069 655.861 544.458 663.443 555.848L663.812 556.388L744.281 671.003C757.988 690.527 737.796 715.746 715.875 706.936L715.357 706.722L586.516 651.841C573.858 646.449 559.236 651.902 553.163 664.163L552.881 664.751L493.856 791.748C483.801 813.381 451.864 808.504 448.533 785.114L448.46 784.558L431.568 645.538C429.908 631.88 417.875 621.944 404.22 622.816L403.569 622.865L264.075 635.246C240.313 637.355 228.568 607.258 247.159 592.678L247.604 592.337L359.553 508.197C370.551 499.931 373.14 484.543 365.557 473.153L365.188 472.614L284.719 357.999Z" stroke="#959AD3" stroke-width="2"/>
<path opacity="0.448276" d="M297.042 349.624C284.375 329.41 305.859 305.281 327.289 315.226L327.796 315.467L450.378 375.445C462.736 381.491 477.622 376.812 484.329 364.886L484.642 364.312L548.558 243.737C559.731 222.661 591.369 229.202 593.471 252.734L593.516 253.293L602.864 389.441C603.806 403.167 615.303 413.719 628.985 413.564L629.638 413.549L766.018 408.614C789.857 407.752 800.01 438.422 780.683 452.008L780.22 452.326L666.986 528.496C655.571 536.175 652.181 551.408 659.157 563.179L659.497 563.736L731.959 679.377C744.626 699.591 723.141 723.72 701.711 713.775L701.204 713.533L578.623 653.556C566.265 647.509 551.378 652.189 544.672 664.115L544.358 664.688L480.442 785.264C469.269 806.34 437.631 799.799 435.529 776.267L435.485 775.708L426.137 639.56C425.194 625.834 413.698 615.282 400.016 615.437L399.363 615.452L262.983 620.387C239.144 621.249 228.99 590.579 248.318 576.992L248.781 576.674L362.014 500.504C373.429 492.825 376.82 477.593 369.844 465.822L369.504 465.264L297.042 349.624Z" stroke="#959AD3" stroke-width="2"/>
<path opacity="0.482759" d="M309.6 342.1C298.009 321.251 320.726 298.28 341.607 309.333L342.1 309.601L458.251 374.175C470.276 380.86 485.387 376.965 492.708 365.406L493.05 364.85L561.353 250.852C573.613 230.388 604.866 238.577 605.734 262.187L605.748 262.747L607.901 395.624C608.124 409.381 619.052 420.52 632.723 421.081L633.376 421.099L766.253 423.252C790.105 423.638 798.639 454.797 778.627 467.354L778.148 467.648L664.151 535.95C652.349 543.021 648.165 558.055 654.515 570.175L654.826 570.75L719.4 686.901C730.991 707.751 708.274 730.721 687.393 719.668L686.901 719.4L570.75 654.826C558.725 648.141 543.614 652.035 536.292 663.594L535.95 664.151L467.647 778.149C455.387 798.612 424.135 790.424 423.267 766.814L423.252 766.253L421.099 633.376C420.876 619.62 409.948 608.48 396.277 607.919L395.624 607.901L262.748 605.749C238.896 605.362 230.361 574.203 250.374 561.646L250.851 561.353L364.85 493.051C376.652 485.98 380.835 470.946 374.485 458.826L374.175 458.251L309.6 342.1Z" stroke="#959AD3" stroke-width="2"/>
<path opacity="0.517241" d="M322.341 335.43C311.857 314.002 335.745 292.252 356.018 304.383L356.497 304.676L466.08 373.342C477.738 380.648 493.033 377.55 500.949 366.389L501.32 365.851L573.5 258.55C586.815 238.757 617.595 248.569 617.227 272.192L617.212 272.753L612.537 401.988C612.039 415.738 622.37 427.434 635.993 428.709L636.644 428.762L765.66 437.621C789.459 439.255 796.351 470.818 775.709 482.31L775.216 482.578L660.957 543.146C648.801 549.59 643.837 564.384 649.544 576.82L649.824 577.411L706.66 693.571C717.144 714.999 693.256 736.749 672.982 724.619L672.504 724.325L562.921 655.659C551.263 648.353 535.968 651.451 528.052 662.612L527.68 663.149L455.5 770.451C442.185 790.244 411.405 780.432 411.774 756.809L411.788 756.248L416.464 627.013C416.961 613.263 406.631 601.567 393.008 600.292L392.357 600.239L263.341 591.381C239.542 589.746 232.649 558.183 253.292 546.691L253.785 546.424L368.043 485.855C380.199 479.411 385.163 464.617 379.456 452.181L379.177 451.59L322.341 335.43Z" stroke="#959AD3" stroke-width="2"/>
<path opacity="0.551724" d="M335.208 329.609C325.859 307.662 350.854 287.191 370.464 300.367L370.927 300.685L473.841 372.939C485.101 380.844 500.536 378.55 509.025 367.82L509.425 367.303L584.974 266.783C599.306 247.713 629.532 259.124 627.927 282.695L627.883 283.253L616.766 408.506C615.55 422.211 625.254 434.432 638.792 436.418L639.439 436.506L764.267 451.673C787.947 454.551 793.178 486.432 771.962 496.827L771.457 497.069L657.425 550.068C644.949 555.867 639.217 570.381 644.266 583.099L644.514 583.703L693.792 699.39C703.141 721.337 678.147 741.807 658.536 728.632L658.074 728.316L555.16 656.061C543.9 648.156 528.464 650.449 519.974 661.18L519.575 661.697L444.026 762.217C429.694 781.286 399.469 769.876 401.074 746.305L401.118 745.745L412.234 620.493C413.45 606.789 403.747 594.567 390.209 592.58L389.561 592.494L264.734 577.325C241.053 574.448 235.822 542.568 257.037 532.172L257.544 531.93L371.575 478.931C384.051 473.133 389.783 458.619 384.734 445.901L384.486 445.297L335.208 329.609Z" stroke="#959AD3" stroke-width="2"/>
<path opacity="0.586207" d="M348.149 324.635C339.962 302.229 365.993 283.094 384.887 297.278L385.333 297.619L481.51 372.956C492.341 381.44 507.875 379.958 516.915 369.686L517.34 369.19L595.754 275.503C611.065 257.21 640.65 270.186 637.814 293.641L637.741 294.197L620.586 415.158C618.654 428.78 627.705 441.492 641.12 444.184L641.763 444.305L762.104 465.368C785.602 469.481 789.157 501.592 767.427 510.863L766.909 511.078L653.576 556.703C640.813 561.841 634.33 576.035 638.706 588.999L638.923 589.615L680.852 704.366C689.039 726.772 663.007 745.907 644.113 731.723L643.668 731.381L547.49 656.045C536.659 647.561 521.125 649.043 512.085 659.315L511.66 659.811L433.247 753.497C417.936 771.791 388.351 758.814 391.187 735.359L391.259 734.803L408.415 613.843C410.347 600.221 401.295 587.509 387.88 584.817L387.238 584.695L266.896 563.632C243.398 559.519 239.843 527.408 261.574 518.137L262.092 517.923L375.424 472.298C388.187 467.16 394.67 452.966 390.294 440.002L390.078 439.385L348.149 324.635Z" stroke="#959AD3" stroke-width="2"/>
<path opacity="0.62069" d="M361.111 320.496C354.108 297.692 381.104 279.946 399.23 295.099L399.657 295.464L489.066 373.383C499.438 382.422 515.029 381.754 524.593 371.969L525.044 371.497L605.818 284.659C622.065 267.192 650.931 281.699 646.872 304.973L646.77 305.525L623.995 421.914C621.352 435.417 629.725 448.585 642.981 451.976L643.617 452.13L759.207 478.663C782.457 484 784.327 516.253 762.141 524.374L761.613 524.561L649.429 563.033C636.415 567.495 629.197 581.331 632.889 594.506L633.072 595.133L667.889 708.504C674.892 731.308 647.895 749.054 629.769 733.901L629.343 733.536L539.934 655.618C529.562 646.579 513.971 647.246 504.406 657.031L503.957 657.503L423.181 744.341C406.934 761.808 378.068 747.301 382.128 724.027L382.23 723.475L405.006 607.085C407.648 593.583 399.274 580.415 386.018 577.024L385.384 576.87L269.792 550.337C246.542 545 244.673 512.747 266.859 504.626L267.388 504.438L379.572 465.968C392.586 461.505 399.803 447.669 396.112 434.494L395.928 433.868L361.111 320.496Z" stroke="#959AD3" stroke-width="2"/>
<path opacity="0.655172" d="M374.043 317.182C368.243 294.043 396.131 277.734 413.439 293.815L413.846 294.201L496.486 374.206C506.371 383.776 521.975 383.926 532.039 374.655L532.514 374.206L615.154 294.201C632.293 277.608 660.361 293.607 655.088 316.637L654.957 317.181L626.99 428.753C623.646 442.098 631.318 455.687 644.379 459.767L645.004 459.954L755.611 491.519C778.55 498.065 778.73 530.372 756.149 537.321L755.611 537.48L645.005 569.047C631.775 572.822 623.843 586.261 626.84 599.612L626.991 600.248L654.957 711.818C660.757 734.957 632.869 751.266 615.561 735.185L615.154 734.799L532.514 654.794C522.629 645.224 507.025 645.074 496.961 654.345L496.487 654.794L413.846 734.798C396.707 751.391 368.639 735.393 373.912 712.363L374.042 711.818L402.009 600.247C405.354 586.902 397.682 573.313 384.621 569.233L383.995 569.047L273.389 537.48C250.449 530.934 250.27 498.627 272.851 491.678L273.388 491.519L383.995 459.953C397.225 456.177 405.157 442.739 402.16 429.388L402.009 428.753L374.043 317.182Z" stroke="#959AD3" stroke-width="2"/>
<path opacity="0.689655" d="M386.893 314.668C382.312 291.257 411.017 276.43 427.46 293.395L427.846 293.802L503.751 375.405C513.121 385.479 528.696 386.445 539.231 377.714L539.729 377.291L623.749 304.069C641.733 288.396 668.924 305.841 662.454 328.563L662.295 329.101L629.576 435.638C625.537 448.79 632.488 462.762 645.317 467.52L645.933 467.74L751.355 503.891C773.92 511.629 772.408 543.901 749.494 549.658L748.949 549.789L640.325 574.723C626.916 577.801 618.292 590.807 620.586 604.297L620.704 604.939L642.107 714.312C646.688 737.723 617.984 752.55 601.541 735.585L601.154 735.179L525.249 653.576C515.879 643.502 500.304 642.535 489.769 651.267L489.271 651.689L405.251 724.912C387.267 740.585 360.076 723.14 366.546 700.417L366.705 699.879L399.424 593.342C403.463 580.19 396.512 566.219 383.683 561.461L383.067 561.241L277.645 525.09C255.08 517.352 256.592 485.08 279.506 479.322L280.051 479.192L388.675 454.257C402.084 451.179 410.708 438.173 408.414 424.684L408.296 424.042L386.893 314.668Z" stroke="#959AD3" stroke-width="2"/>
<path opacity="0.724138" d="M399.615 312.955C396.266 289.337 425.706 276.033 441.239 293.835L441.604 294.261L510.84 376.984C519.67 387.535 535.173 389.315 546.151 381.147L546.67 380.75L631.592 314.23C650.372 299.519 676.613 318.363 668.963 340.716L668.776 341.245L631.753 442.567C627.031 455.49 633.242 469.806 645.804 475.229L646.407 475.48L746.477 515.765C768.606 524.674 765.407 556.821 742.224 561.372L741.673 561.475L635.415 580.073C621.862 582.446 612.568 594.982 614.154 608.573L614.238 609.22L629.385 716.026C632.735 739.644 603.294 752.948 587.761 735.146L587.397 734.72L518.161 651.996C509.331 641.446 493.827 639.666 482.85 647.834L482.331 648.231L397.408 714.751C378.629 729.462 352.386 710.617 360.037 688.264L360.224 687.736L397.246 586.413C401.968 573.491 395.759 559.175 383.196 553.752L382.593 553.501L282.523 513.216C260.394 504.308 263.593 472.159 286.776 467.609L287.328 467.506L393.586 448.908C407.138 446.535 416.431 433.999 414.846 420.409L414.763 419.761L399.615 312.955Z" stroke="#959AD3" stroke-width="2"/>
<path opacity="0.758621" d="M412.161 312.014C410.052 288.253 440.148 276.508 454.728 295.098L455.069 295.543L517.734 378.919C526 389.917 541.389 392.506 552.779 384.924L553.318 384.556L638.68 324.624C658.204 310.916 683.424 331.109 674.613 353.031L674.399 353.548L633.525 449.506C628.134 462.164 633.586 476.785 645.848 482.858L646.436 483.14L741.019 527.101C762.652 537.156 757.775 569.093 734.385 572.424L733.83 572.497L630.291 585.078C616.634 586.737 606.697 598.77 607.569 612.425L607.618 613.076L616.839 716.967C618.948 740.729 588.852 752.474 574.272 733.884L573.931 733.438L511.266 650.063C503 639.064 487.611 636.475 476.221 644.058L475.682 644.427L390.32 704.358C370.796 718.065 345.576 697.873 354.386 675.951L354.601 675.433L395.475 579.476C400.866 566.818 395.414 552.196 383.152 546.124L382.563 545.841L287.98 501.88C266.348 491.826 271.225 459.889 294.614 456.558L295.17 456.485L398.709 443.905C412.367 442.245 422.302 430.212 421.431 416.557L421.382 415.905L412.161 312.014Z" stroke="#959AD3" stroke-width="2"/>
<path opacity="0.793103" d="M424.486 311.82C423.623 287.98 454.293 277.826 467.88 297.154L468.197 297.617L524.418 381.193C532.097 392.608 547.329 395.999 559.1 389.024L559.658 388.683L645.011 335.2C665.225 322.533 689.353 344.017 679.408 365.448L679.167 365.954L634.898 456.43C628.851 468.789 633.531 483.675 645.458 490.381L646.031 490.694L735.026 537.871C756.103 549.043 749.561 580.682 726.029 582.784L725.47 582.828L624.981 589.728C611.255 590.67 600.702 602.166 600.858 615.848L600.874 616.501L604.515 717.161C605.378 741.001 574.708 751.154 561.121 731.825L560.804 731.364L504.583 647.788C496.904 636.372 481.672 632.981 469.901 639.957L469.343 640.298L383.991 693.781C363.776 706.448 339.647 684.963 349.593 663.533L349.834 663.027L394.103 572.551C400.15 560.192 395.47 545.306 383.543 538.599L382.97 538.287L293.975 491.111C272.898 479.938 279.44 448.3 302.972 446.198L303.53 446.154L404.02 439.253C417.745 438.311 428.298 426.815 428.142 413.133L428.127 412.48L424.486 311.82Z" stroke="#959AD3" stroke-width="2"/>
<path opacity="0.827586" d="M436.545 312.348C436.931 288.496 468.09 279.961 480.646 299.974L480.94 300.452L530.872 383.789C537.943 395.592 552.977 399.775 565.098 393.425L565.671 393.114L650.583 345.908C671.433 334.316 694.403 357.033 683.351 377.914L683.083 378.407L635.876 463.318C629.191 475.343 633.086 490.454 644.645 497.776L645.201 498.119L728.538 548.051C749.001 560.311 740.814 591.563 717.204 592.431L716.643 592.446L619.505 594.02C605.748 594.243 594.608 605.171 594.047 618.842L594.029 619.495L592.456 716.633C592.069 740.485 560.911 749.02 548.354 729.007L548.06 728.529L498.128 645.192C491.057 633.39 476.023 629.206 463.903 635.557L463.329 635.867L378.417 683.074C357.568 694.665 334.597 671.948 345.65 651.067L345.918 650.574L393.124 565.663C399.809 553.638 395.915 538.527 384.356 531.205L383.799 530.862L300.462 480.93C279.999 468.67 288.187 437.418 311.796 436.55L312.357 436.535L409.496 434.961C423.253 434.738 434.392 423.81 434.953 410.139L434.971 409.486L436.545 312.348Z" stroke="#959AD3" stroke-width="2"/>
<path opacity="0.862069" d="M448.299 313.569C449.933 289.77 481.496 282.878 492.988 303.52L493.255 304.013L537.083 386.692C543.527 398.848 558.322 403.811 570.757 398.104L571.348 397.825L655.403 356.697C676.83 346.213 698.581 370.102 686.45 390.375L686.156 390.853L636.469 470.149C629.164 481.807 632.261 497.102 643.422 505.018L643.96 505.389L721.604 557.62C741.397 570.934 731.585 601.715 707.962 601.346L707.401 601.332L613.886 597.949C600.136 597.451 588.44 607.781 587.165 621.404L587.112 622.056L580.701 715.413C579.066 739.212 547.503 746.104 536.012 725.461L535.744 724.969L491.916 642.29C485.472 630.134 470.679 625.17 458.243 630.877L457.652 631.157L373.597 672.284C352.169 682.768 330.419 658.88 342.55 638.606L342.843 638.128L392.531 558.832C399.836 547.173 396.738 531.88 385.578 523.964L385.04 523.592L307.396 471.361C287.602 458.046 297.415 427.267 321.038 427.636L321.598 427.649L415.115 431.033C428.864 431.53 440.56 421.2 441.836 407.577L441.888 406.926L448.299 313.569Z" stroke="#959AD3" stroke-width="2"/>
<path opacity="0.896552" d="M459.709 315.452C462.586 291.771 494.467 286.54 504.862 307.756L505.104 308.262L543.038 389.88C548.837 402.356 563.351 408.088 576.069 403.04L576.673 402.791L659.477 367.52C681.423 358.172 701.894 383.165 688.719 402.776L688.402 403.239L636.686 476.9C628.78 488.16 631.073 503.596 641.804 512.085L642.322 512.484L714.269 566.559C733.338 580.891 721.928 611.116 698.357 609.511L697.797 609.467L608.147 601.511C594.443 600.295 582.222 609.998 580.235 623.536L580.148 624.184L569.292 713.529C566.414 737.21 534.534 742.441 524.138 721.225L523.897 720.719L485.962 639.101C480.163 626.625 465.649 620.893 452.932 625.941L452.328 626.19L369.524 661.461C347.577 670.809 327.107 645.816 340.282 626.205L340.599 625.742L392.315 552.081C400.22 540.821 397.928 525.385 387.197 516.896L386.679 516.497L314.732 462.422C295.662 448.09 307.073 417.865 330.644 419.47L331.203 419.514L420.854 427.47C434.558 428.686 446.779 418.983 448.765 405.445L448.852 404.797L459.709 315.452Z" stroke="#959AD3" stroke-width="2"/>
<path opacity="0.931035" d="M470.737 317.966C474.85 294.468 506.961 290.912 516.232 312.643L516.447 313.161L548.723 393.337C553.861 406.1 568.055 412.582 581.019 408.207L581.635 407.991L662.814 378.328C685.221 370.141 704.356 396.173 690.172 415.067L689.831 415.512L636.534 483.552C628.05 494.383 629.533 509.917 639.804 518.956L640.299 519.382L706.578 574.854C724.871 590.164 711.895 619.75 688.44 616.914L687.883 616.841L602.311 604.706C588.689 602.774 575.977 611.825 573.285 625.24L573.165 625.882L558.263 711.017C554.15 734.514 522.04 738.069 512.768 716.338L512.553 715.821L480.278 635.645C475.14 622.882 460.945 616.399 447.981 620.775L447.365 620.992L366.185 650.653C343.779 658.84 324.645 632.81 338.829 613.915L339.17 613.47L392.466 545.43C400.95 534.599 399.468 519.065 389.196 510.025L388.7 509.6L322.423 454.128C304.129 438.817 317.106 409.23 340.561 412.067L341.117 412.14L426.689 424.276C440.311 426.208 453.023 417.157 455.715 403.742L455.836 403.1L470.737 317.966Z" stroke="#959AD3" stroke-width="2"/>
<path opacity="0.965517" d="M481.351 321.074C486.688 297.823 518.94 295.953 527.062 318.139L527.25 318.668L554.126 397.042C558.589 410.056 572.424 417.274 585.6 413.582L586.227 413.398L665.43 389.075C688.234 382.072 705.98 409.068 690.827 427.194L690.463 427.621L636.026 490.083C626.987 500.455 627.655 516.046 637.439 525.611L637.912 526.062L698.579 582.492C716.046 598.739 701.539 627.605 678.264 623.546L677.712 623.444L596.401 607.533C582.899 604.891 569.731 613.264 566.34 626.52L566.186 627.155L547.649 707.908C542.312 731.159 510.059 733.029 501.937 710.843L501.75 710.314L474.874 631.94C470.411 618.926 456.576 611.708 443.4 615.4L442.773 615.584L363.569 639.907C340.766 646.91 323.02 619.914 338.173 601.788L338.537 601.361L392.974 538.899C402.013 528.527 401.345 512.936 391.561 503.371L391.088 502.92L330.421 446.49C312.954 430.243 327.461 401.376 350.736 405.436L351.287 405.538L432.599 421.449C446.101 424.091 459.269 415.718 462.66 402.462L462.815 401.827L481.351 321.074Z" stroke="#959AD3" stroke-width="2"/>
<path d="M491.52 324.74C498.066 301.8 530.372 301.621 537.321 324.201L537.48 324.74L559.237 400.976C563.013 414.206 576.452 422.137 589.803 419.14L590.438 418.99L667.34 399.713C690.479 393.913 706.787 421.801 690.706 439.11L690.32 439.517L635.176 496.477C625.606 506.362 625.457 521.966 634.728 532.03L635.176 532.504L690.32 589.464C706.913 606.603 690.915 634.671 667.885 629.399L667.34 629.268L590.438 609.992C577.093 606.647 563.505 614.32 559.425 627.38L559.237 628.006L537.48 704.242C530.934 727.181 498.628 727.36 491.679 704.78L491.52 704.242L469.763 628.006C465.987 614.776 452.548 606.844 439.197 609.841L438.562 609.992L361.661 629.268C338.522 635.068 322.213 607.18 338.294 589.871L338.681 589.464L393.824 532.504C403.394 522.619 403.544 507.015 394.272 496.951L393.824 496.477L338.681 439.517C322.088 422.378 338.085 394.31 361.115 399.582L361.661 399.713L438.562 418.99C451.907 422.335 465.495 414.662 469.575 401.602L469.763 400.976L491.52 324.74Z" stroke="#959AD3" stroke-width="2"/>
</svg>
