<svg width="537" height="217" viewBox="0 0 537 217" fill="none" xmlns="http://www.w3.org/2000/svg">
<path d="M533.094 214.872L532.188 207.534L524.887 207.663L525.793 215L533.094 214.872Z" fill="#6903F9"/>
<path d="M92.2012 70.003L97.0095 69.7473L94.0903 60.5978L89.2819 60.8535L92.2012 70.003Z" fill="#FF15E5"/>
<path d="M496.371 30.9885L500.573 25.1414L492.079 19.3923L487.877 25.2395L496.371 30.9885Z" fill="#6903F9"/>
<path d="M523.173 15.6469L527.55 14.6799L527.714 4.50813L523.337 5.47509L523.173 15.6469Z" fill="#FF15E5"/>
<path d="M151.1 170.506L147.027 163.887L127.748 176.593L131.821 183.211L151.1 170.506Z" fill="#6903F9"/>
<path d="M51.9394 120.186L49.967 114.521L44.264 117.044L46.2364 122.709L51.9394 120.186Z" fill="#FF15E5"/>
<path d="M261.328 32.7372L265.687 27.7483L252.109 15.0603L247.75 20.0493L261.328 32.7372Z" fill="#FF15E5"/>
<path d="M385.38 154.963L393.059 154.271L383.986 132.365L376.307 133.057L385.38 154.963Z" fill="#6903F9"/>
<path d="M365.27 16.4268L368.35 13.1377L353.446 5.89334e-05L350.367 3.28918L365.27 16.4268Z" fill="#6903F9"/>
<path d="M157.632 186.313L163.617 186.422L162.743 178.931L156.758 178.822L157.632 186.313Z" fill="#6903F9"/>
<path d="M64.0741 145.105L67.8196 141.554L57.2305 131.884L53.485 135.435L64.0741 145.105Z" fill="#6903F9"/>
<path d="M177.415 158.77L171.904 156.209L169.948 166.262L175.459 168.822L177.415 158.77Z" fill="#FF15E5"/>
<path d="M166.329 198.69L165.278 193.454L150.262 198.462L151.313 203.698L166.329 198.69Z" fill="#FF15E5"/>
<path d="M220.988 100.865L222.094 93.0984L207.551 90.0506L206.445 97.8176L220.988 100.865Z" fill="#FF15E5"/>
<path d="M466.81 202.15L460.986 198.258L456.95 207.724L462.773 211.617L466.81 202.15Z" fill="#6903F9"/>
<path d="M66.3653 139.963L71.9421 137.224L65.1286 126.598L59.5518 129.337L66.3653 139.963Z" fill="#FF15E5"/>
<path d="M536.021 58.3777L532.27 56.2937L529.7 61.1275L533.452 63.2115L536.021 58.3777Z" fill="#6903F9"/>
<path d="M383.329 26.5786L381.386 22.2019L375.617 22.6392L377.56 27.0159L383.329 26.5786Z" fill="#6903F9"/>
<path d="M111.716 103.83L116.156 100.098L110.419 93.1644L105.979 96.8965L111.716 103.83Z" fill="#FF15E5"/>
<path d="M31.248 139.363L25.6423 132.642L18.3183 136.632L23.924 143.353L31.248 139.363Z" fill="#6903F9"/>
<path d="M115.012 44.4989L119.664 40.8401L108.861 29.0598L104.209 32.7186L115.012 44.4989Z" fill="#6903F9"/>
<path d="M272.359 216.064L279.116 213.209L272.379 198.123L265.621 200.978L272.359 216.064Z" fill="#FF15E5"/>
<path d="M89.6543 14.6906L82.7446 9.08496L74.4935 22.0322L81.4032 27.6378L89.6543 14.6906Z" fill="#FF15E5"/>
<path d="M478.076 139.833L482.149 135.917L475.679 128.956L471.606 132.872L478.076 139.833Z" fill="#6903F9"/>
<path d="M273.876 53.1478L273.006 47.0481L263.153 46.5367L264.023 52.6364L273.876 53.1478Z" fill="#6903F9"/>
<path d="M142.107 39.0717L139.86 33.8621L132.605 36.4531L134.851 41.6628L142.107 39.0717Z" fill="#FF15E5"/>
<path d="M41.8055 179.847L36.6423 176.774L33.0927 185.71L38.2559 188.783L41.8055 179.847Z" fill="#FF15E5"/>
<path d="M287.179 172.314L290.684 165.961L281.293 159.471L277.789 165.823L287.179 172.314Z" fill="#6903F9"/>
<path d="M42.268 111.184L37.7878 103.433L19.5442 111.901L24.0244 119.652L42.268 111.184Z" fill="#6903F9"/>
<path d="M160.923 39.0273L157.755 36.2727L152.857 41.9005L156.025 44.6551L160.923 39.0273Z" fill="#6903F9"/>
<path d="M500.51 216.183L503.064 212.532L491.211 203.199L488.657 206.85L500.51 216.183Z" fill="#6903F9"/>
<path d="M320.759 25.016L319.984 20.1355L307.625 19.2823L308.4 24.1628L320.759 25.016Z" fill="#6903F9"/>
<path d="M511.064 192.597L506.906 191.342L505.26 198.377L509.418 199.632L511.064 192.597Z" fill="#6903F9"/>
<path d="M123.77 111.347L127.598 106.886L120.605 100.424L116.777 104.885L123.77 111.347Z" fill="#FF15E5"/>
<path d="M75.6318 216.242L78.7395 214.219L71.4477 205.527L68.34 207.549L75.6318 216.242Z" fill="#FF15E5"/>
<path d="M304.796 216.151L309.16 216.686L307.2 210.465L302.836 209.93L304.796 216.151Z" fill="#FF15E5"/>
</svg>
