<svg width="403" height="171" viewBox="0 0 403 171" fill="none" xmlns="http://www.w3.org/2000/svg">
<path d="M328.525 70.8237L325.206 67.585L320.482 72.4113L323.801 75.6501L328.525 70.8237Z" fill="#6903F9"/>
<path d="M11.8819 36.1487L16.9494 35.2856L11.2927 24.9922L6.22518 25.8553L11.8819 36.1487Z" fill="#6903F9"/>
<path d="M12.5668 74.3136L9.34125 69.2722L-2.57859e-05 76.2874L3.22556 81.3288L12.5668 74.3136Z" fill="#6903F9"/>
<path d="M189.853 81.8202L184.463 80.3413L187.826 91.2247L193.216 92.7035L189.853 81.8202Z" fill="#6903F9"/>
<path d="M187.762 60.082L190.109 54.9216L180.418 49.2246L178.071 54.385L187.762 60.082Z" fill="#6903F9"/>
<path d="M245.751 48.7268L244.45 43.2834L235.078 45.3403L236.379 50.7837L245.751 48.7268Z" fill="#6903F9"/>
<path d="M64.9697 73.0521L61.592 66.9824L55.0086 68.3982L58.3863 74.4679L64.9697 73.0521Z" fill="#6903F9"/>
<path d="M120.908 18.2554L125.308 12.4663L109.743 0.405239L105.343 6.1943L120.908 18.2554Z" fill="#6903F9"/>
<path d="M333.036 96.0751L334.813 88.8918L319.871 83.8348L318.093 91.0181L333.036 96.0751Z" fill="#6903F9"/>
<path d="M371.054 62.1357L365.787 58.3508L359.807 66.5125L365.073 70.2974L371.054 62.1357Z" fill="#FF15E5"/>
<path d="M215.805 83.4885L221.285 84.2629L221.286 68.9552L215.806 68.1808L215.805 83.4885Z" fill="#6903F9"/>
<path d="M386.585 15.8993L379.625 11.8926L375.601 21.1471L382.562 25.1538L386.585 15.8993Z" fill="#FF15E5"/>
<path d="M402.481 106.214L398.245 103.34L396.561 107.743L400.797 110.616L402.481 106.214Z" fill="#6903F9"/>
<path d="M216.522 102.929L210.344 97.2932L198.798 110.298L204.976 115.933L216.522 102.929Z" fill="#6903F9"/>
<path d="M37.4842 157.206L43.1635 156.122L37.4964 140.135L31.817 141.219L37.4842 157.206Z" fill="#6903F9"/>
</svg>
