<svg width="136" height="136" viewBox="0 0 136 136" fill="none" xmlns="http://www.w3.org/2000/svg">
<path d="M88.3274 48.7806C88.4009 48.4282 88.6341 48.4314 88.8572 48.4301C90.4942 48.4207 92.1316 48.4269 93.7683 48.3981C94.2262 48.3901 94.3348 48.5864 94.3309 48.9926C94.3176 50.3869 94.3049 51.7818 94.3317 53.1757C94.3468 53.9645 93.8015 53.7622 93.3701 53.7904C92.9264 53.8194 92.5597 53.7774 92.6439 53.1674C92.6829 52.885 92.6579 52.5927 92.6502 52.3052C92.634 51.6952 92.4681 51.5781 91.9206 51.8327C90.6 52.4471 89.7706 53.502 89.2974 54.853C88.9948 55.7169 88.8987 56.6152 88.899 57.5282C88.9026 67.6877 88.8972 77.8473 88.9186 88.0067C88.92 88.6549 88.8001 88.8916 88.0909 88.8661C85.7926 88.7836 83.4832 89.013 81.1928 88.7489C78.6144 88.4516 76.3416 87.396 74.7223 85.3398C71.4919 81.2375 68.3623 77.0559 65.1929 72.9057C63.5007 70.6899 61.8144 68.4696 60.1186 66.2566C59.9476 66.0335 59.8051 65.774 59.4951 65.6074C59.3636 65.9632 59.4166 66.3148 59.4162 66.6542C59.4112 71.3687 59.4144 76.0833 59.4124 80.7978C59.4104 85.3362 55.8582 88.8739 51.307 88.8712C49.3814 88.87 47.4556 88.8494 45.5301 88.8676C44.9525 88.8731 44.6909 88.722 44.7125 88.0812C44.7557 86.7989 44.754 85.5129 44.7073 84.2308C44.6824 83.5484 45.0716 83.5401 45.5475 83.544C46.0066 83.5477 46.4669 83.5016 46.4067 84.207C46.3817 84.5006 46.3206 84.8199 46.4958 85.1461C47.1703 84.9396 47.6314 84.4814 48.0115 83.935C48.664 82.9971 48.9551 81.9308 48.9568 80.8054C48.9681 73.302 48.9555 65.7985 48.9714 58.2951C48.9727 57.6943 48.7529 57.5018 48.1917 57.5524C47.8624 57.5822 47.5264 57.5799 47.1966 57.5529C46.613 57.5051 46.1882 57.6396 45.7824 58.152C45.0849 59.0327 43.7803 59.048 43.0005 58.3035C42.1948 57.5344 42.1647 56.2322 42.9341 55.4372C43.7169 54.6285 45.0307 54.5892 45.7752 55.4356C46.1334 55.8426 46.503 55.9219 46.9893 55.9245C48.8212 55.9342 50.669 55.7741 52.4682 56.2558C54.2291 56.7274 55.6931 57.6576 56.8111 59.1287C62.9969 67.268 69.1971 75.3964 75.3821 83.5364C76.81 85.4155 78.6261 86.6906 80.9734 87.0287C82.5712 87.2588 84.2002 87.1199 85.8147 87.1069C87.4144 87.0941 87.1805 87.3103 87.2316 85.6825C87.2513 85.0562 87.0333 84.9003 86.4339 84.9006C85.1763 84.9011 83.9117 85.0313 82.6599 84.8055C80.5385 84.4228 78.834 83.3729 77.5466 81.635C76.5589 80.3017 75.5383 78.9927 74.548 77.6612C74.3185 77.3527 74.0791 77.1957 73.6715 77.1928C72.5138 77.1846 71.7119 76.4267 71.6383 75.3367C71.5717 74.3519 72.287 73.4268 73.2357 73.2706C74.3488 73.0873 75.2794 73.7218 75.5572 74.8582C75.5884 74.9858 75.6466 75.1423 75.6022 75.2471C75.2443 76.0906 75.7989 76.6135 76.2453 77.1855C77.2253 78.4413 78.1686 79.7267 79.1772 80.9588C80.4064 82.4604 81.9896 83.2759 83.9689 83.2394C84.7876 83.2243 85.6093 83.1969 86.4249 83.2491C87.0875 83.2915 87.2355 83.0297 87.2341 82.4107C87.2182 75.3057 87.216 68.2006 87.2385 61.0957C87.244 59.3505 87.0914 57.5988 87.3435 55.8595C87.731 53.1859 89.0516 51.2067 91.6313 50.0856C90.8314 50.0856 90.0315 50.0864 89.2316 50.0854C88.3248 50.0842 88.3245 50.0835 88.3151 49.1724C88.314 49.062 88.3176 48.9516 88.3274 48.7806ZM50.6382 79.4879C50.6365 79.9745 50.6619 80.4629 50.6285 80.9473C50.4384 83.7056 49.4195 85.9161 46.621 86.9327C46.5984 86.941 46.5956 87.0039 46.5549 87.1301C48.19 87.1301 49.7973 87.1472 51.4041 87.1267C55.0576 87.08 57.7261 84.3624 57.73 80.698C57.7357 75.2792 57.7192 69.8602 57.7568 64.4417C57.7631 63.5258 57.5723 62.7756 56.9463 62.0945C56.47 61.5764 56.0792 60.9772 55.6723 60.3986C54.668 58.9706 53.3068 58.1127 51.5997 57.7735C50.6943 57.5936 50.6349 57.6228 50.6349 58.5206C50.6349 65.4655 50.6367 72.4104 50.6382 79.4879ZM44.1335 57.4082C44.3819 57.5061 44.6165 57.4748 44.7942 57.2773C45.0437 56.9999 45.0846 56.6818 44.8205 56.3967C44.5754 56.1321 44.2627 56.1281 44.0021 56.3641C43.6345 56.6968 43.6698 57.0456 44.1335 57.4082ZM73.2609 75.7201C73.6289 75.8817 73.9626 75.8551 74.152 75.4656C74.2898 75.1824 74.205 74.914 73.949 74.7088C73.694 74.5043 73.4592 74.5652 73.2427 74.76C72.9352 75.0367 72.8655 75.3392 73.2609 75.7201Z" fill="#F08A8B"/>
<path d="M78.4564 75.8672C73.7644 69.6744 69.1006 63.5195 64.4323 57.368C63.2823 55.8526 62.1812 54.2938 60.9441 52.8524C59.3988 51.052 57.3635 50.1341 54.9831 50.1058C52.084 50.0713 49.1842 50.1026 46.2848 50.091C45.9161 50.0895 45.6866 50.2156 45.4532 50.5052C44.6899 51.4526 43.4345 51.5569 42.5791 50.7845C41.7478 50.0339 41.702 48.6517 42.4823 47.8655C43.2717 47.07 44.607 47.1025 45.3758 47.9972C45.6765 48.3473 45.9865 48.4353 46.4077 48.4336C49.3506 48.4214 52.2953 48.3593 55.2359 48.4395C58.3403 48.5242 60.8659 49.9 62.7398 52.3539C67.1447 58.122 71.5024 63.9261 75.882 69.7135C76.6418 70.7175 77.4159 71.7107 78.3189 72.8852C78.3673 71.9807 78.4362 71.2748 78.4378 70.5688C78.4489 65.7659 78.4232 60.9628 78.4542 56.1601C78.4803 52.1175 81.8879 48.6272 85.9331 48.4312C85.9552 48.4302 85.9773 48.4293 85.9994 48.428C87.0184 48.3704 87.3176 48.77 87.0241 49.7728C86.9061 50.1759 86.5776 50.0709 86.3138 50.084C83.4855 50.2241 81.2605 51.9181 80.3923 54.6136C80.1945 55.2278 80.1157 55.8624 80.1152 56.5087C80.111 62.5732 80.1021 68.6377 80.0996 74.7021C80.0993 75.6871 81.5844 77.2528 82.5815 77.3514C82.9051 77.3833 82.9537 77.1832 82.9582 76.9422C82.9661 76.5217 82.9667 76.1011 82.9671 75.6806C82.9677 75.0227 83.4706 75.1918 83.8316 75.176C84.1904 75.1603 84.6354 75.0674 84.6303 75.6725C84.6219 76.6463 84.6116 77.6202 84.6175 78.594C84.6203 79.0535 84.4097 79.2052 83.9639 79.1969C82.0346 79.1609 80.4397 78.4517 79.2426 76.9132C78.9844 76.5815 78.7359 76.2421 78.4564 75.8672ZM43.7872 48.6645C43.5756 48.707 43.4173 48.8289 43.3506 49.029C43.2524 49.3236 43.2834 49.6059 43.5613 49.7969C43.7823 49.9489 44.028 49.9493 44.2401 49.7833C44.5024 49.578 44.5229 49.2902 44.4114 49.0026C44.3239 48.7771 44.1223 48.6803 43.7872 48.6645Z" fill="#F08A8B"/>
<path d="M46.71 54.4952C46.0878 53.7189 45.9068 52.9219 46.3922 52.0624C46.8036 51.334 47.4565 51.0365 48.28 51.0865C48.793 51.1177 49.2473 51.3249 49.5496 51.7181C49.8628 52.1255 50.2369 52.1934 50.703 52.1922C52.0483 52.1888 53.3955 52.1004 54.7312 52.4004C56.569 52.813 58.103 53.6858 59.2496 55.2005C60.7837 57.2275 62.3246 59.2493 63.8495 61.2832C64.0728 61.5811 64.2955 61.6762 64.6803 61.6554C65.7681 61.5965 66.6339 62.3687 66.7309 63.4034C66.8364 64.529 66.1317 65.4363 65.01 65.6189C64.0868 65.7692 63.1063 65.0586 62.8534 64.051C62.8214 63.9235 62.761 63.7697 62.8024 63.6623C63.1284 62.8176 62.5657 62.3022 62.1257 61.7295C60.752 59.9416 59.3731 58.1573 58.0232 56.3515C56.8866 54.831 55.3625 54.0768 53.4997 53.9405C52.4852 53.8663 51.4699 53.828 50.4519 53.8494C50.1703 53.8554 49.9678 53.9063 49.7692 54.1447C48.8839 55.2073 47.8781 55.3225 46.71 54.4952ZM48.6449 52.7796C48.4681 52.4975 48.2505 52.2843 47.8918 52.4581C47.5896 52.6044 47.402 52.8485 47.5001 53.202C47.5852 53.5086 47.8295 53.7112 48.1349 53.6741C48.5771 53.6203 48.7663 53.3187 48.6449 52.7796ZM65.4018 63.7693C65.2914 63.1161 64.9525 62.8482 64.5325 63.0878C64.3069 63.2166 64.1835 63.4177 64.1885 63.6813C64.1938 63.9579 64.354 64.1348 64.6046 64.2078C64.9486 64.3079 65.1982 64.159 65.4018 63.7693Z" fill="#F08A8B"/>
<path d="M64.5 52.2949C64.1949 52.6229 64.0475 52.3713 63.8918 52.191C63.7429 52.0186 63.7326 51.8486 63.8928 51.6596C64.578 50.8517 65.1864 49.9455 66.3978 49.869C66.6047 49.8559 66.742 49.6821 66.8933 49.5532C67.8682 48.7226 68.7589 48.6117 69.8701 49.2111C70.0759 49.3221 70.229 49.3447 70.4093 49.2007C71.257 48.5233 72.5501 48.9609 73.1038 49.6221C73.3879 49.9613 73.715 50.1494 74.1496 50.2483C74.9869 50.4389 75.5786 50.9306 75.7553 51.818C75.8144 52.1151 75.957 52.3455 76.2087 52.521C76.8058 52.9376 77.0321 53.5577 77.0408 54.2447C77.0462 54.6636 77.1645 55.0067 77.367 55.3635C77.8555 56.2237 77.8814 57.0918 77.254 57.9076C77.0803 58.1335 77.0438 58.3904 76.9903 58.647C76.9267 58.9517 76.9127 59.3221 76.6749 59.5035C76.0256 59.9987 75.8188 60.6554 75.7476 61.4233C75.7126 61.8003 75.4617 62.1291 75.1503 62.3514C74.6272 62.7248 74.0139 62.9137 73.5626 63.4632C73.1593 63.9541 72.3851 63.484 72.3034 62.7977C72.1538 61.541 71.293 60.7434 70.3638 60.0401C70.031 59.7883 69.6708 59.6124 69.463 59.0999C70.2898 59.0741 71.0191 59.2061 71.7329 59.3666C72.2201 59.4762 72.6568 59.4558 73.0692 59.1978C73.4108 58.9841 73.7191 59.0058 74.0652 59.1885C74.4796 59.4072 74.9255 59.5347 75.4066 59.4861C75.7804 59.4484 75.9994 59.2231 76.1503 58.9035C76.284 58.6204 76.2173 58.4569 75.9466 58.2543C75.6472 58.0302 75.7854 57.5908 76.1303 57.4842C76.9681 57.2252 77.2389 56.6274 76.756 55.8517C76.4213 55.3142 76.0458 54.8429 76.3116 54.1695C76.3189 54.151 76.3075 54.1258 76.3078 54.1038C76.3187 53.2029 75.2176 53.0224 75.091 52.1423C74.9636 51.2567 74.2095 50.9421 73.3701 50.875C73.1001 50.8534 72.9396 50.6775 72.7968 50.4698C72.5796 50.1537 72.2996 49.9101 71.947 49.7494C71.4675 49.5308 71.0311 49.5655 70.704 50.0048C70.3741 50.4477 70.871 50.6576 71.0582 50.8729C71.3942 51.2593 71.8589 51.5069 72.4095 51.2226C72.7698 51.0365 73.1003 51.0682 73.3727 51.3707C73.6468 51.6751 73.6549 52.0181 73.4013 52.3368C73.1536 52.6482 73.2025 52.8769 73.5041 53.1211C73.7992 53.3601 73.8478 53.7013 73.6633 54.0196C73.455 54.3789 73.0999 54.56 72.7008 54.399C71.9637 54.1016 71.3769 54.1807 70.9392 54.9026C70.7825 55.1609 70.4761 55.225 70.2275 55.1426C69.1984 54.8016 68.4601 55.3913 67.6942 55.8901C67.4459 56.0517 67.2355 56.4112 66.9399 55.9979C66.6638 55.6119 67.0337 55.4253 67.2634 55.2656C67.6953 54.9653 68.1645 54.7189 68.7602 54.366C67.986 54.1716 67.4013 53.6886 66.6553 54.224C66.2655 54.5038 65.8226 54.4115 65.5492 54.0031C65.306 53.64 65.3146 53.2229 65.67 52.9226C66.0264 52.6215 66.4561 52.5675 66.8156 52.9104C67.5775 53.6371 68.6048 53.4194 69.4885 53.705C69.5239 53.7164 69.5749 53.6909 69.6153 53.6745C69.8798 53.5666 69.9689 53.3511 69.9503 53.0868C69.916 52.6002 70.1351 52.0417 69.5948 51.6899C69.296 51.4954 68.996 51.5929 68.7229 51.7603C68.5937 51.8395 68.5052 51.9841 68.3775 52.0671C67.9982 52.3136 67.6175 52.3113 67.2948 51.9747C66.9712 51.6371 66.9615 51.2367 67.259 50.8955C67.5579 50.5527 67.939 50.5149 68.3252 50.803C68.4475 50.8943 68.576 51.0033 68.7178 51.0374C69.0933 51.1278 69.4265 51.0532 69.6131 50.6674C69.8048 50.2709 69.6343 49.9817 69.3118 49.7591C68.8493 49.4399 68.1584 49.5186 67.6052 50.0245C67.2056 50.39 66.8238 50.6247 66.2486 50.7066C65.3979 50.8277 64.9649 51.5813 64.5 52.2949ZM74.7538 61.6672C75.0875 61.2741 75.3695 60.7202 75.008 60.3675C74.6188 59.9879 73.9901 59.7143 73.377 59.8987C72.8321 60.0626 72.3099 60.2763 71.5756 60.0876C71.9377 60.5844 72.2029 60.953 72.4731 61.318C73.1116 62.1804 73.7643 62.3017 74.7538 61.6672ZM71.8966 52.0717C71.5218 51.9405 71.1759 51.5462 70.745 51.8575C70.4297 52.0852 70.6162 53.4693 70.95 53.6677C71.1229 53.7705 71.282 53.7419 71.4566 53.6888C71.9374 53.5426 72.3409 53.3118 72.5191 52.7475C72.2862 52.6025 72.1073 52.3835 71.8966 52.0717Z" fill="#F08A8B"/>
<path d="M84.4783 55.5209C84.4761 57.6417 84.4716 59.6969 84.4742 61.7521C84.4747 62.1778 84.4756 62.5779 83.8704 62.53C83.3847 62.4915 82.9333 62.5401 82.9503 61.7717C82.9997 59.5408 82.9582 57.308 82.9695 55.076C82.9724 54.4985 83.0485 53.9139 81.9923 54.0632C82.491 53.2722 83.0674 52.7758 83.6167 52.154C84.3121 52.6394 84.7824 53.2648 85.2954 54.0098C84.0841 54.0808 84.5896 54.9095 84.4783 55.5209Z" fill="#F08A8B"/>
<path d="M72.4886 58.4315C72.3187 58.5673 72.1444 58.6498 72.0152 58.5806C71.1182 58.1005 70.1463 58.361 69.2118 58.2885C68.5934 58.2405 68.2772 57.8918 68.1366 57.3816C67.9841 56.8284 68.2623 56.3894 68.7238 56.0851C69.0819 55.849 69.4897 55.747 69.9197 55.7464C70.4065 55.7457 70.9086 55.6712 71.3769 55.7647C72.3226 55.9535 73.0557 55.3937 73.8751 55.1526C74.2699 55.0364 74.1798 54.6204 74.2133 54.2946C74.2678 53.7648 74.6324 53.5832 75.1042 53.627C75.6161 53.6744 75.834 54.0543 75.8125 54.5099C75.7921 54.9436 75.4663 55.1603 75.0403 55.1826C74.5039 55.2107 74.324 55.4634 74.3718 56.0048C74.4315 56.6812 73.8209 57.1392 73.2413 56.7985C72.6099 56.4275 71.9729 56.4924 71.3201 56.48C70.8114 56.4703 70.3023 56.4842 69.7934 56.4808C69.5142 56.4789 69.2753 56.574 69.0602 56.7445C68.8908 56.8787 68.7961 57.045 68.8528 57.2646C68.9097 57.4854 69.0678 57.6185 69.2888 57.5955C70.1233 57.5086 71.0048 57.8601 71.793 57.2738C72.0406 57.0896 72.4156 57.1176 72.6404 57.3957C72.9218 57.7438 72.8492 58.0941 72.4886 58.4315Z" fill="#F08A8B"/>
<path d="M84.9918 57.9039C84.9082 57.1993 85.3373 57.2233 85.7804 57.2097C86.2647 57.1948 86.3723 57.4439 86.3641 57.8624C86.3563 58.2664 86.3461 58.6132 85.7922 58.6015C85.3435 58.5921 84.9254 58.5968 84.9918 57.9039Z" fill="#F08A8B"/>
<path d="M85.9048 69.0799C86.629 69.2692 86.3327 69.7866 86.3009 70.1754C86.2819 70.4074 85.3839 70.5421 85.1663 70.3336C84.8509 70.0313 84.9328 69.6142 85.0679 69.2836C85.1956 68.9709 85.5713 69.1039 85.9048 69.0799Z" fill="#F08A8B"/>
<path d="M84.1454 67.1262C84.6113 68.0057 84.4176 68.4362 83.6415 68.4457C83.2075 68.451 82.9875 68.3299 83.0066 67.8496C83.0241 67.4116 83.0569 67.0413 83.6312 67.0783C83.7845 67.0882 83.9378 67.0963 84.1454 67.1262Z" fill="#F08A8B"/>
<path d="M81.0623 60.2217C81.1001 59.8171 80.8033 59.2991 81.4329 59.2246C81.7294 59.1895 82.1657 59.0356 82.3132 59.4301C82.4344 59.7539 82.5633 60.2462 82.1888 60.4544C81.857 60.6389 81.3823 60.7237 81.0623 60.2217Z" fill="#F08A8B"/>
<path d="M86.1484 55.2629C86.4596 55.6463 86.4507 56.0741 86.2651 56.4064C86.1005 56.701 85.703 56.5419 85.4004 56.5293C84.8696 56.5073 85.0046 56.108 84.9834 55.7992C84.9613 55.477 85.0301 55.2185 85.4306 55.2237C85.6509 55.2266 85.8712 55.2352 86.1484 55.2629Z" fill="#F08A8B"/>
<path d="M85.0202 71.4948C85.2474 71.0869 85.9221 70.8801 86.1874 71.127C86.5041 71.4218 86.446 71.8728 86.2841 72.1704C86.055 72.5914 85.571 72.448 85.2174 72.3183C84.8778 72.1938 85.0404 71.8227 85.0202 71.4948Z" fill="#F08A8B"/>
<path d="M85.9511 60.5276C85.5644 60.4148 84.972 60.7269 85.0031 60.0022C85.0155 59.7142 84.9032 59.329 85.3531 59.275C85.6804 59.2357 86.14 59.0582 86.2842 59.475C86.3993 59.8074 86.5895 60.3126 85.9511 60.5276Z" fill="#F08A8B"/>
<path d="M82.3762 71.4806C82.3732 71.9498 82.4875 72.4421 81.8043 72.3914C81.5708 72.374 81.2636 72.4649 81.1509 72.1983C81.0232 71.896 81.0164 71.5324 81.131 71.2301C81.263 70.8818 82.1179 71.0253 82.3762 71.4806Z" fill="#F08A8B"/>
<path d="M82.3744 67.7461C82.4351 68.3798 82.0919 68.4386 81.6329 68.4358C81.1907 68.4331 81.0437 68.2525 81.0866 67.8326C81.1203 67.5027 80.9588 67.0782 81.5356 67.0752C81.9672 67.0729 82.4204 67.0361 82.3744 67.7461Z" fill="#F08A8B"/>
<path d="M83.2101 65.2227C83.439 65.1876 83.6156 65.1856 83.791 65.1698C84.2177 65.1314 84.3855 65.3209 84.3751 65.7476C84.3656 66.1377 84.3413 66.4322 83.8249 66.4456C83.0004 66.4669 82.8393 66.2043 83.2101 65.2227Z" fill="#F08A8B"/>
<path d="M85.6662 63.1745C86.2963 63.1015 86.3654 63.4347 86.3669 63.8951C86.3684 64.3964 86.0969 64.4612 85.6927 64.4576C85.3008 64.4542 85.0063 64.4176 85 63.9092C84.9945 63.4637 85.0122 63.1 85.6662 63.1745Z" fill="#F08A8B"/>
<path d="M83.6806 63.1771C84.3138 63.092 84.3806 63.4213 84.3835 63.8861C84.3867 64.3851 84.1304 64.4692 83.719 64.4567C83.3477 64.4455 82.9964 64.4667 83.0128 63.931C83.0255 63.5132 83.0085 63.1013 83.6806 63.1771Z" fill="#F08A8B"/>
<path d="M85.0836 67.5774C85.1196 66.837 85.6469 67.0904 85.9689 67.1196C86.5406 67.1715 86.3403 67.6677 86.3445 68.0024C86.3509 68.5096 85.9489 68.4119 85.6308 68.4307C85.1921 68.4565 85.0413 68.2346 85.0852 67.828C85.0921 67.7632 85.0851 67.6969 85.0836 67.5774Z" fill="#F08A8B"/>
<path d="M86.0279 61.2079C86.5427 61.5235 86.4503 62.0046 86.2402 62.3102C86.0226 62.6267 85.531 62.5263 85.2018 62.3917C84.8509 62.2483 85.0079 61.8562 85.0048 61.5647C85.0018 61.2863 85.1887 61.1915 85.4422 61.1945C85.6175 61.1966 85.7928 61.1977 86.0279 61.2079Z" fill="#F08A8B"/>
<path d="M86.359 65.6594C86.3279 65.9801 86.4627 66.3469 86.0566 66.4086C85.7479 66.4556 85.3408 66.5867 85.1401 66.2821C84.9701 66.0241 84.9667 65.6124 85.1008 65.3333C85.2576 65.0068 85.6532 65.2073 85.9413 65.1653C86.2623 65.1186 86.3657 65.3164 86.359 65.6594Z" fill="#F08A8B"/>
<path d="M82.3563 66.1122C82.0351 66.616 81.5633 66.5078 81.2314 66.3338C80.9325 66.1772 81.05 65.7154 81.0951 65.4141C81.1565 65.0041 81.5546 65.2003 81.8101 65.1734C82.0382 65.1493 82.3283 65.0966 82.3606 65.4624C82.378 65.6586 82.3652 65.8574 82.3563 66.1122Z" fill="#F08A8B"/>
<path d="M68.5252 71.8305C68.8696 71.8302 69.178 71.7928 69.2593 72.1811C69.3198 72.47 69.3332 72.7934 69.0931 72.9746C68.8185 73.1819 68.4401 73.1456 68.1512 73.0014C67.8428 72.8474 67.9826 72.4933 67.9771 72.2218C67.9705 71.8989 68.1989 71.8311 68.5252 71.8305Z" fill="#F08A8B"/>
<path d="M81.8089 69.1361C82.5449 69.0697 82.3598 69.5784 82.3749 69.9348C82.3987 70.4987 81.9674 70.3815 81.6346 70.4061C81.1798 70.4396 81.1075 70.1778 81.0911 69.7906C81.0698 69.2877 81.2146 69.0274 81.8089 69.1361Z" fill="#F08A8B"/>
<path d="M81.1723 64.3531C81.053 63.967 81.0701 63.6213 81.1271 63.2912C81.2956 63.1405 81.4797 63.1928 81.651 63.1792C82.1034 63.1432 82.4027 63.2216 82.3928 63.805C82.3835 64.3524 82.1495 64.5092 81.6642 64.4508C81.5122 64.4325 81.3604 64.4119 81.1723 64.3531Z" fill="#F08A8B"/>
<path d="M82.3768 61.8895C82.3679 62.7083 81.7904 62.4538 81.4162 62.4457C80.856 62.4334 81.1403 61.9676 81.096 61.6908C81.0261 61.2542 81.3035 61.1997 81.655 61.1876C82.1197 61.1716 82.4411 61.2705 82.3768 61.8895Z" fill="#F08A8B"/>
<path d="M70.6789 71.3952C70.2544 71.4432 69.769 71.7328 69.6013 71.1336C69.5259 70.8641 69.4318 70.4804 69.7717 70.3065C70.0609 70.1585 70.4627 70.1078 70.7063 70.3305C71.0152 70.613 70.8843 71.0113 70.6789 71.3952Z" fill="#F08A8B"/>
<path d="M69.1601 69.7206C69.1132 69.7804 69.0976 69.8003 69.078 69.8056C68.7204 69.9028 68.3035 70.0382 68.0567 69.7017C67.8777 69.4577 67.849 69.0425 68.0953 68.7868C68.3209 68.5525 68.6952 68.5884 68.9634 68.7011C69.4275 68.896 69.223 69.3211 69.1601 69.7206Z" fill="#F08A8B"/>
<path d="M70.0182 73.0642C69.3838 72.9051 69.5126 72.4241 69.6119 72.0879C69.7346 71.6726 70.1743 71.8302 70.4808 71.858C70.9448 71.9 70.8286 72.2933 70.8319 72.583C70.8381 73.1286 70.4286 73.0602 70.0182 73.0642Z" fill="#F08A8B"/>
<path d="M69.6199 74.4493C69.6144 74.0534 69.3649 73.5977 69.9137 73.4666C70.1786 73.4033 70.5257 73.3217 70.727 73.5674C70.9314 73.8168 70.8972 74.1728 70.7695 74.4512C70.6178 74.7819 70.2704 74.6374 69.9982 74.6502C69.8638 74.6565 69.7371 74.6124 69.6199 74.4493Z" fill="#F08A8B"/>
<path d="M66.3828 70.9184C66.3246 70.3574 66.5796 70.2108 67.0424 70.2204C67.412 70.2281 67.649 70.3335 67.6256 70.7354C67.6077 71.043 67.7071 71.4515 67.2159 71.4872C66.8363 71.5149 66.3752 71.613 66.3828 70.9184Z" fill="#F08A8B"/>
<path d="M68.0084 70.4412C68.4069 70.1784 68.8224 70.1125 69.1246 70.4254C69.3364 70.6447 69.3213 71.0391 69.1475 71.3035C68.9462 71.6098 68.5649 71.5231 68.2885 71.4468C67.7662 71.3026 68.0162 70.8384 68.0084 70.4412Z" fill="#F08A8B"/>
<path d="M72.7786 71.1635C72.7853 70.7937 72.6364 70.389 73.1026 70.2951C73.4042 70.2343 73.8125 70.0919 73.9693 70.4987C74.0808 70.788 74.1579 71.2342 73.8281 71.3983C73.5138 71.5547 73.0642 71.6788 72.7786 71.1635Z" fill="#F08A8B"/>
<path d="M72.1927 71.4377C71.8029 71.4354 71.3428 71.7002 71.22 71.152C71.1593 70.8807 71.0283 70.5036 71.3777 70.3254C71.6477 70.1877 72.0233 70.1549 72.2371 70.3946C72.4991 70.6883 72.4931 71.0711 72.1927 71.4377Z" fill="#F08A8B"/>
<path d="M72.2581 68.7884C72.3702 69.2221 72.6305 69.6918 72.0203 69.8622C71.7756 69.9305 71.4101 70.0154 71.2462 69.6905C71.1175 69.4353 71.0865 69.0897 71.2519 68.862C71.4965 68.525 71.8769 68.6408 72.2581 68.7884Z" fill="#F08A8B"/>
<path d="M70.6075 69.8468C70.1988 69.8329 69.7112 70.1049 69.5929 69.5131C69.5413 69.2549 69.4434 68.9006 69.755 68.7411C70.0466 68.5918 70.4414 68.5476 70.6714 68.8102C70.9258 69.1007 70.9281 69.4876 70.6075 69.8468Z" fill="#F08A8B"/>
<path d="M68.6542 68.3106C68.0812 68.3673 67.9587 68.0877 67.9686 67.636C67.9761 67.2917 68.078 67.0846 68.4491 67.0873C68.7744 67.0896 69.1548 67.0227 69.1879 67.5096C69.2124 67.8707 69.3093 68.3036 68.6542 68.3106Z" fill="#F08A8B"/>
<path d="M67.6061 67.7389C67.5926 68.4387 67.1238 68.3075 66.7458 68.285C66.2669 68.2566 66.398 67.8689 66.3726 67.5829C66.3386 67.2008 66.5579 67.0903 66.8973 67.0777C67.3297 67.0618 67.6523 67.1485 67.6061 67.7389Z" fill="#F08A8B"/>
<path d="M67.9648 64.826C67.973 64.1077 68.4732 64.2765 68.8233 64.299C69.2649 64.3274 69.1759 64.7199 69.1952 65.0106C69.2225 65.4217 68.9833 65.5089 68.619 65.524C68.1431 65.5437 67.9162 65.3728 67.9648 64.826Z" fill="#F08A8B"/>
<path d="M67.5314 68.8962C67.5788 69.318 67.8155 69.7951 67.1902 69.8803C66.9327 69.9154 66.5698 70.0118 66.4299 69.6625C66.3245 69.3994 66.2692 69.0331 66.4836 68.8425C66.7761 68.5825 67.1666 68.5644 67.5314 68.8962Z" fill="#F08A8B"/>
<path d="M69.7037 67.2038C70.128 67.1079 70.5657 66.9072 70.7883 67.3912C70.9009 67.6359 70.9324 67.985 70.6856 68.1977C70.4525 68.3985 70.1287 68.3366 69.8557 68.2772C69.5016 68.2001 69.5816 67.8714 69.5762 67.6185C69.5735 67.4922 69.6286 67.3646 69.7037 67.2038Z" fill="#F08A8B"/>
<path d="M75.0992 57.6956C75.1081 58.0131 75.1408 58.3064 74.7542 58.3306C74.5333 58.3444 74.284 58.3584 74.2316 58.0635C74.1942 57.8538 74.1214 57.5794 74.3553 57.4628C74.6137 57.3339 74.9155 57.2987 75.0992 57.6956Z" fill="#F08A8B"/>
<path d="M75.5581 57.1239C75.036 57.0125 75.1298 56.6716 75.1582 56.3157C75.4509 56.2651 75.7579 56.0916 75.9152 56.4599C76.0353 56.7413 76.005 57.0358 75.5581 57.1239Z" fill="#F08A8B"/>
<path d="M54.9949 79.6285C54.9602 80.0086 55.1262 80.2084 55.3596 80.4138C56.2592 81.2056 56.3438 82.4951 55.5735 83.3031C54.8041 84.1103 53.5178 84.159 52.7781 83.4091C51.9239 82.5431 51.964 81.2087 52.9161 80.4151C53.2471 80.1392 53.3475 79.8522 53.3462 79.4484C53.3386 77.0611 53.3669 74.6735 53.3408 72.2865C53.3344 71.6966 53.5234 71.5246 54.0992 71.5304C54.6572 71.536 54.9916 71.6489 54.9579 72.2824C54.8287 74.712 55.0865 77.14 54.9949 79.6285ZM53.5341 81.8952C53.555 82.382 53.787 82.6484 54.288 82.5227C54.5779 82.45 54.7905 82.2205 54.7796 81.9013C54.7697 81.6149 54.5737 81.4137 54.2974 81.3476C53.9193 81.2571 53.6631 81.4186 53.5341 81.8952Z" fill="#F08A8B"/>
<path d="M56.8601 64.161C56.8312 64.4888 56.9501 64.8495 56.5644 64.9313C56.2512 64.9978 55.8659 65.0782 55.6197 64.8293C55.3534 64.56 55.4264 64.1485 55.5298 63.8297C55.655 63.4432 56.0509 63.6194 56.3366 63.5938C56.6932 63.5618 56.8654 63.7467 56.8601 64.161Z" fill="#F08A8B"/>
<path d="M56.7566 67.8328C56.791 68.322 57.135 68.8982 56.2903 68.9507C55.7385 68.985 55.446 68.8483 55.4592 68.1945C55.4735 67.4836 55.9074 67.5722 56.3466 67.5862C56.5022 67.5911 56.6535 67.6204 56.7566 67.8328Z" fill="#F08A8B"/>
<path d="M51.4966 68.2639C51.4194 67.5585 51.8431 67.5783 52.2914 67.5751C52.7905 67.5715 52.8597 67.8753 52.8679 68.2632C52.8763 68.6599 52.7966 68.9567 52.3016 68.955C51.8545 68.9535 51.4304 68.9639 51.4966 68.2639Z" fill="#F08A8B"/>
<path d="M53.4818 62.1682C53.498 61.4053 54.0269 61.6077 54.396 61.6277C54.9743 61.659 54.8157 62.1325 54.8216 62.479C54.8304 63.0043 54.4432 62.9525 54.087 62.979C53.5003 63.0226 53.4476 62.6684 53.4818 62.1682Z" fill="#F08A8B"/>
<path d="M52.7926 69.8083C52.8297 70.248 53.0739 70.7393 52.4656 70.8804C52.165 70.9501 51.7503 71.046 51.5723 70.705C51.4185 70.4102 51.3555 69.9463 51.6263 69.7245C51.9447 69.4638 52.3939 69.481 52.7926 69.8083Z" fill="#F08A8B"/>
<path d="M55.6105 74.7855C55.5365 74.578 55.5064 74.4063 55.4815 74.2338C55.4072 73.7198 55.6206 73.5358 56.1459 73.5315C56.6821 73.527 56.8329 73.752 56.8459 74.2401C56.8604 74.7864 56.5905 74.9463 56.1099 74.8984C55.9578 74.8833 55.8077 74.8473 55.6105 74.7855Z" fill="#F08A8B"/>
<path d="M55.5983 65.7003C56.6807 65.4767 56.9093 65.6302 56.8562 66.4147C56.8209 66.9375 56.4764 66.9232 56.1125 66.926C55.7449 66.9288 55.4444 66.8627 55.483 66.3877C55.5006 66.1709 55.4439 65.9465 55.5983 65.7003Z" fill="#F08A8B"/>
<path d="M52.7904 65.8271C52.9301 66.7936 52.8311 66.9663 52.1697 66.9582C51.9402 66.9553 51.6384 67.0259 51.5454 66.732C51.4471 66.4212 51.3642 65.9977 51.5783 65.7864C51.9053 65.4638 52.3659 65.5073 52.7904 65.8271Z" fill="#F08A8B"/>
<path d="M55.4943 70.6094C55.5568 70.2072 55.2345 69.6798 55.8565 69.5933C56.1679 69.55 56.605 69.3848 56.7783 69.8426C56.894 70.1485 56.9705 70.5743 56.6854 70.7694C56.3264 71.0149 55.8652 71.0718 55.4943 70.6094Z" fill="#F08A8B"/>
<path d="M54.8287 70.1517C54.8184 70.4854 54.8871 70.8288 54.4967 70.8904C54.183 70.9399 53.7878 71.0597 53.5716 70.7648C53.379 70.5022 53.4272 70.1153 53.541 69.8116C53.6708 69.4655 54.0259 69.6095 54.2944 69.5836C54.6669 69.5478 54.8007 69.766 54.8287 70.1517Z" fill="#F08A8B"/>
<path d="M54.0506 66.9401C53.2804 66.9298 53.4936 66.3923 53.4992 66.0189C53.5076 65.4552 53.9684 65.6097 54.2935 65.5968C54.9082 65.5723 54.7558 66.0654 54.7981 66.4029C54.8659 66.9435 54.48 66.9417 54.0506 66.9401Z" fill="#F08A8B"/>
<path d="M54.6127 67.6428C54.8214 67.8779 54.7919 68.1229 54.8041 68.3648C54.8276 68.8324 54.6032 68.9673 54.1601 68.9602C53.7075 68.9529 53.446 68.8488 53.4781 68.3274C53.5024 67.9343 53.4637 67.5414 54.037 67.5789C54.2127 67.5904 54.3882 67.6044 54.6127 67.6428Z" fill="#F08A8B"/>
<path d="M56.1128 72.8369C55.3678 72.8968 55.4771 72.4031 55.4813 71.9961C55.4878 71.3628 55.979 71.5875 56.3075 71.5535C56.8399 71.4986 56.8214 71.8839 56.8509 72.2487C56.8932 72.7741 56.6288 72.91 56.1128 72.8369Z" fill="#F08A8B"/>
<path d="M52.0712 73.546C52.3947 73.5791 52.7545 73.4298 52.8341 73.8402C52.8915 74.1363 52.9822 74.5103 52.724 74.7151C52.4408 74.9397 52.0318 74.8877 51.7119 74.7624C51.3758 74.6307 51.5298 74.2662 51.5104 73.9975C51.485 73.6477 51.7021 73.5401 52.0712 73.546Z" fill="#F08A8B"/>
<path d="M53.5288 63.8023C54.4505 63.4162 54.7612 63.5684 54.7774 64.3062C54.7878 64.7784 54.6298 64.9839 54.1331 64.9773C53.6591 64.971 53.4283 64.8085 53.4804 64.3178C53.4965 64.1652 53.4963 64.0109 53.5288 63.8023Z" fill="#F08A8B"/>
<path d="M52.3094 71.5497C52.8587 71.535 52.8753 71.8779 52.8696 72.2236C52.8657 72.4598 52.9028 72.7603 52.5746 72.7994C52.2376 72.8396 51.8152 72.9785 51.5869 72.6568C51.4029 72.3973 51.4231 71.9998 51.5789 71.7038C51.7085 71.4575 52.016 71.5727 52.3094 71.5497Z" fill="#F08A8B"/>
</svg>
