<svg width="28" height="40" viewBox="0 0 28 40" fill="none" xmlns="http://www.w3.org/2000/svg">
<path d="M20.6457 26.6666C24.3276 26.6666 27.3124 23.6818 27.3124 19.9999C27.3124 16.318 24.3276 13.3333 20.6457 13.3333C16.9638 13.3333 13.9791 16.318 13.9791 19.9999C13.9791 23.6818 16.9638 26.6666 20.6457 26.6666Z" fill="#19BCFE"/>
<path fill-rule="evenodd" clip-rule="evenodd" d="M7.31241 40.0001C10.9943 40.0001 13.9791 37.0153 13.9791 33.3334C13.9791 32.3283 13.9791 30.1061 13.9791 26.6667C10.9841 26.6667 8.76192 26.6667 7.31241 26.6667C3.63052 26.6667 0.645748 29.6515 0.645748 33.3334C0.645748 37.0153 3.63052 40.0001 7.31241 40.0001Z" fill="#09CF83"/>
<path fill-rule="evenodd" clip-rule="evenodd" d="M7.31241 26.6666H13.9791V13.3333C10.7619 13.3333 8.53971 13.3333 7.31241 13.3333C3.63052 13.3333 0.645748 16.318 0.645748 19.9999C0.645748 23.6818 3.63052 26.6666 7.31241 26.6666Z" fill="#A259FF"/>
<path fill-rule="evenodd" clip-rule="evenodd" d="M7.31241 13.3333H13.9791V0C10.7619 0 8.53971 0 7.31241 0C3.63052 0 0.645748 2.98477 0.645748 6.66667C0.645748 10.3486 3.63052 13.3333 7.31241 13.3333Z" fill="#F24E1E"/>
<path fill-rule="evenodd" clip-rule="evenodd" d="M20.6457 13.3333H13.9791V0H20.6457C24.3276 0 27.3124 2.98477 27.3124 6.66667C27.3124 10.3486 24.3276 13.3333 20.6457 13.3333Z" fill="#FF7262"/>
</svg>
