<svg width="41" height="40" viewBox="0 0 41 40" fill="none" xmlns="http://www.w3.org/2000/svg">
<g clip-path="url(#clip0_10_633)">
<path d="M40.2247 18.2177L22.7601 0.754446C21.7551 -0.251482 20.1237 -0.251482 19.1174 0.754446L15.4909 4.38096L20.0913 8.98137C21.1604 8.62017 22.3862 8.86243 23.2385 9.71475C24.0948 10.5723 24.3353 11.8087 23.9653 12.8813L28.3989 17.3149C29.4716 16.9454 30.7092 17.1846 31.566 18.0426C32.7632 19.2395 32.7632 21.1793 31.566 22.3771C30.3682 23.5748 28.4284 23.5748 27.2302 22.3771C26.3296 21.4756 26.1071 20.1528 26.5631 19.0433L22.4283 14.9085L22.4279 25.7894C22.7198 25.9342 22.9954 26.1269 23.2385 26.3692C24.4358 27.566 24.4358 29.5059 23.2385 30.7045C22.0408 31.9018 20.1 31.9018 18.9041 30.7045C17.7068 29.5059 17.7068 27.566 18.9041 26.3692C19.1999 26.0738 19.5422 25.8504 19.9074 25.7003V14.7181C19.5422 14.5688 19.2003 14.3468 18.9041 14.0492C17.9969 13.1433 17.7788 11.8122 18.2436 10.6983L13.709 6.16284L1.73397 18.137C0.727599 19.1438 0.727599 20.7751 1.73397 21.7811L19.1986 39.2448C20.2041 40.2507 21.835 40.2507 22.8418 39.2448L40.2247 21.8622C41.2307 20.8559 41.2307 19.2237 40.2247 18.2177Z" fill="#DE4C36"/>
</g>
<defs>
<clipPath id="clip0_10_633">
<rect width="40" height="40" fill="white" transform="translate(0.97908)"/>
</clipPath>
</defs>
</svg>
