<svg width="39" height="38" viewBox="0 0 39 38" fill="none" xmlns="http://www.w3.org/2000/svg">
<path d="M0.87439 0H38.8744V38H0.87439V0Z" fill="#F7DF1E"/>
<path d="M10.866 31.7557L13.774 29.9958C14.335 30.9905 14.8454 31.8321 16.0695 31.8321C17.2429 31.8321 17.9827 31.3731 17.9827 29.5877V17.4458H21.5537V29.6382C21.5537 33.3369 19.3857 35.0204 16.2226 35.0204C13.3659 35.0204 11.7076 33.5409 10.8659 31.7554" fill="black"/>
<path d="M23.4934 31.3729L26.4011 29.6894C27.1665 30.9394 28.1613 31.8576 29.9213 31.8576C31.4009 31.8576 32.3445 31.1178 32.3445 30.0975C32.3445 28.8731 31.3752 28.4394 29.7427 27.7254L28.8502 27.3425C26.2737 26.2459 24.5646 24.8685 24.5646 21.9605C24.5646 19.2822 26.6052 17.2415 29.7938 17.2415C32.0641 17.2415 33.6966 18.0323 34.8698 20.0985L32.0894 21.8839C31.4772 20.7872 30.8142 20.3536 29.7939 20.3536C28.7481 20.3536 28.0848 21.0168 28.0848 21.8839C28.0848 22.9553 28.7481 23.389 30.2784 24.0523L31.1711 24.4349C34.2065 25.7358 35.9156 27.0621 35.9156 30.0464C35.9156 33.2606 33.3904 35.0205 29.9979 35.0205C26.6819 35.0205 24.5391 33.4391 23.4934 31.3729Z" fill="black"/>
</svg>
