<svg width="41" height="40" viewBox="0 0 41 40" fill="none" xmlns="http://www.w3.org/2000/svg">
<path d="M20.5954 39.9992C20.0477 39.9992 19.5321 39.857 19.0501 39.5938L14.1626 36.6898C13.4282 36.2844 13.7899 36.1422 14.0204 36.0648C15.0172 35.7359 15.193 35.6594 16.2227 35.068C16.3321 34.9914 16.4751 35.0352 16.5954 35.1008L20.343 37.3469C20.4852 37.4234 20.6719 37.4234 20.7813 37.3469L35.443 28.8547C35.5852 28.7781 35.6626 28.6352 35.6626 28.4492V11.5188C35.6626 11.3328 35.586 11.1898 35.443 11.1133L20.7813 2.66484C20.6391 2.58828 20.4524 2.58828 20.343 2.66484L5.68131 11.1133C5.53912 11.1898 5.46178 11.3656 5.46178 11.5188V28.4602C5.46178 28.6023 5.53834 28.7891 5.68131 28.8656L9.69225 31.1781C11.8618 32.2852 13.2212 30.9922 13.2212 29.7094V12.9875C13.2212 12.768 13.4071 12.5492 13.6594 12.5492H15.5337C15.7532 12.5492 15.9719 12.7352 15.9719 12.9875V29.7094C15.9719 32.6133 14.3938 34.3008 11.6329 34.3008C10.7891 34.3008 10.1313 34.3008 8.25787 33.3805L4.38991 31.1781C3.43678 30.6305 2.84459 29.6 2.84459 28.4938V11.5625C2.84459 10.4555 3.436 9.43672 4.38991 8.87813L19.0501 0.385156C19.9704 -0.129688 21.2196 -0.129688 22.1399 0.385156L36.8016 8.87734C37.7547 9.425 38.3469 10.4555 38.3469 11.5617V28.5031C38.3469 29.6102 37.7555 30.6289 36.8016 31.1875L22.1399 39.6797C21.6587 39.8891 21.1102 39.9992 20.5954 39.9992ZM25.1102 28.3508C18.6774 28.3508 17.3516 25.4141 17.3516 22.9156C17.3516 22.6961 17.5376 22.4773 17.7899 22.4773H19.7188C19.9383 22.4773 20.1243 22.6195 20.1243 22.85C20.4204 24.8008 21.2641 25.7539 25.154 25.7539C28.2438 25.7539 29.5594 25.0523 29.5594 23.3977C29.5594 22.4445 29.1868 21.743 24.3758 21.2719C20.3649 20.8664 17.8665 19.9898 17.8665 16.7898C17.8665 13.8094 20.3649 12.0453 24.5508 12.0453C29.2516 12.0453 31.5641 13.6672 31.8602 17.1844C31.8602 17.2938 31.8274 17.4039 31.7508 17.5133C31.6743 17.5898 31.5649 17.6555 31.4547 17.6555H29.5485C29.3626 17.6555 29.1758 17.5133 29.143 17.3266C28.7047 15.3102 27.5649 14.6422 24.5516 14.6422C21.1766 14.6422 20.7712 15.8148 20.7712 16.7023C20.7712 17.7656 21.2532 18.0938 25.8008 18.6859C30.3157 19.2773 32.4524 20.1211 32.4524 23.2773C32.4305 26.5094 29.7782 28.3508 25.1102 28.3508Z" fill="#539E43"/>
</svg>
