<svg width="33" height="40" viewBox="0 0 33 40" fill="none" xmlns="http://www.w3.org/2000/svg">
<path d="M1.64601 36.8587L0.406897 3.84178C0.365974 2.75137 1.20207 1.82725 2.29113 1.75918L30.3743 0.0039847C31.4828 -0.0652987 32.4377 0.77718 32.5069 1.88571C32.5095 1.92748 32.5108 1.96932 32.5108 2.01116V37.9889C32.5108 39.0996 31.6105 40 30.4998 40C30.4697 40 30.4396 39.9993 30.4095 39.998L3.56546 38.7923C2.51999 38.7454 1.68526 37.9045 1.64601 36.8587Z" fill="#FF4785"/>
<mask id="mask0_10_190" style="mask-type:luminance" maskUnits="userSpaceOnUse" x="0" y="0" width="33" height="40">
<path d="M1.64601 36.8587L0.406897 3.84178C0.365974 2.75137 1.20207 1.82725 2.29113 1.75918L30.3743 0.0039847C31.4828 -0.0652987 32.4377 0.77718 32.5069 1.88571C32.5095 1.92748 32.5108 1.96932 32.5108 2.01116V37.9889C32.5108 39.0996 31.6105 40 30.4998 40C30.4697 40 30.4396 39.9993 30.4095 39.998L3.56546 38.7923C2.51999 38.7454 1.68526 37.9045 1.64601 36.8587Z" fill="white"/>
</mask>
<g mask="url(#mask0_10_190)">
<path d="M24.1129 4.91664L24.3047 0.303024L28.1614 0L28.3275 4.75786C28.3333 4.92344 28.2037 5.06237 28.0382 5.06815C27.9673 5.07062 27.8978 5.04789 27.842 5.00399L26.3548 3.83239L24.5939 5.16811C24.4619 5.26825 24.2737 5.24241 24.1736 5.11041C24.1314 5.05484 24.11 4.98632 24.1129 4.91664ZM19.1806 15.0765C19.1806 15.859 24.4509 15.484 25.1584 14.9344C25.1584 9.60619 22.2995 6.80631 17.0642 6.80631C11.8289 6.80631 8.89567 9.64975 8.89567 13.9149C8.89567 21.3434 18.9207 21.4856 18.9207 25.5375C18.9207 26.6749 18.3637 27.3502 17.1384 27.3502C15.5419 27.3502 14.9107 26.5348 14.9849 23.7624C14.9849 23.161 8.89567 22.9735 8.71002 23.7624C8.23728 30.4808 12.423 32.4187 17.2127 32.4187C21.8539 32.4187 25.4926 29.9448 25.4926 25.4664C25.4926 17.5048 15.3191 17.718 15.3191 13.7727C15.3191 12.1733 16.5072 11.96 17.2127 11.96C17.9553 11.96 19.292 12.0909 19.1806 15.0765Z" fill="white"/>
</g>
</svg>
